<?xml version="1.0" encoding="UTF-8" standalone="no"?>
<svg width="50px" height="50px" viewBox="0 0 50 50" version="1.1" xmlns="http://www.w3.org/2000/svg" xmlns:xlink="http://www.w3.org/1999/xlink">
    <!-- Generator: Sketch 39.1 (31720) - http://www.bohemiancoding.com/sketch -->
    <title>face</title>
    <desc>Created with Sketch.</desc>
    <defs></defs>
    <g id="Page-1" stroke="none" stroke-width="1" fill="none" fill-rule="evenodd">
        <g id="Guideline" transform="translate(-899.000000, -287.000000)">
            <g id="social" transform="translate(829.000000, 287.000000)">
                <g id="face" transform="translate(70.000000, 0.000000)">
                    <g id="1458841323_3">
                        <path d="M45.8333333,0 L4.16666667,0 C1.875,0 0,1.875 0,4.16666667 L0,45.8333333 C0,48.125 1.875,50 4.16666667,50 L45.8333333,50 C48.125,50 50,48.125 50,45.8333333 L50,4.16666667 C50,1.875 48.125,0 45.8333333,0 L45.8333333,0 Z" id="Shape" fill="#3A5BA0"></path>
                        <path d="M32.2916667,26.0416667 L33.3333333,20.8333333 L28.125,20.8333333 L28.125,16.6666667 C28.125,15.1041667 28.9583333,14.5833333 31.25,14.5833333 L33.3333333,14.5833333 L33.3333333,9.375 L29.1666667,9.375 C24.8958333,9.375 21.875,11.875 21.875,16.6666667 L21.875,20.8333333 L16.6666667,20.8333333 L16.6666667,26.0416667 L21.875,26.0416667 L21.875,40.625 L28.125,40.625 L28.125,26.0416667 L32.2916667,26.0416667 L32.2916667,26.0416667 Z" id="f_1_" fill="#FFFFFF"></path>
                    </g>
                </g>
            </g>
        </g>
    </g>
</svg>