<svg width="180" height="69" viewBox="0 0 180 69" xmlns="http://www.w3.org/2000/svg"><title>Group 3</title><g fill="none" fill-rule="evenodd"><path d="M7.682 56.939H3.41v8.03h-2.2v-9.807h6.473v1.777zm12.308 3.227c0 1.516-.345 2.726-1.036 3.63-.691.903-1.619 1.355-2.782 1.355-1.08 0-1.943-.354-2.591-1.06v4.649h-2.21V55.162h2.037l.09.997c.65-.785 1.531-1.178 2.646-1.178 1.2 0 2.141.446 2.823 1.337.682.891 1.023 2.129 1.023 3.712v.136zm-2.2-.19c0-.98-.196-1.756-.586-2.33-.391-.574-.95-.861-1.678-.861-.903 0-1.551.371-1.945 1.115v4.35c.4.762 1.054 1.142 1.963 1.142.703 0 1.253-.282 1.65-.847s.596-1.422.596-2.57zm9.853 1.84l2-6.654h2.355l-3.91 11.294c-.6 1.65-1.618 2.474-3.054 2.474-.321 0-.676-.054-1.064-.163v-1.704l.418.027c.558 0 .978-.1 1.26-.303.281-.203.504-.543.668-1.02l.318-.843-3.455-9.762h2.382l2.082 6.653zm15.517-3.97c0 .434-.132.835-.395 1.2-.264.366-.635.657-1.114.875 1.127.393 1.691 1.151 1.691 2.275 0 .9-.367 1.618-1.1 2.153-.733.534-1.715.802-2.946.802-.751 0-1.436-.126-2.054-.376-.618-.251-1.1-.608-1.446-1.07-.345-.462-.518-1.01-.518-1.645h2.2c0 .399.179.733.537 1.002.357.268.809.403 1.354.403.54 0 .968-.126 1.287-.376.318-.251.477-.579.477-.984 0-.477-.14-.821-.418-1.033-.28-.211-.71-.317-1.291-.317h-1.582v-1.586h1.636c.988-.012 1.482-.417 1.482-1.215 0-.399-.142-.71-.427-.934-.285-.223-.676-.335-1.173-.335-.485 0-.894.12-1.227.358-.334.239-.5.54-.5.902h-2.2c0-.864.363-1.573 1.09-2.125.728-.553 1.652-.83 2.773-.83 1.219 0 2.167.248 2.846.743.679.496 1.018 1.2 1.018 2.112zm4.09 2.13c0-.961.19-1.827.572-2.597.382-.77.918-1.363 1.61-1.777.69-.414 1.484-.62 2.381-.62 1.328 0 2.405.425 3.232 1.277.828.852 1.275 1.982 1.341 3.39l.01.517c0 .966-.187 1.83-.56 2.592a4.125 4.125 0 0 1-1.6 1.767c-.694.417-1.495.626-2.404.626-1.388 0-2.5-.461-3.332-1.382-.834-.922-1.25-2.15-1.25-3.685v-.109zm2.209.19c0 1.009.209 1.799.627 2.37.418.57 1 .856 1.746.856.745 0 1.325-.29 1.74-.87.416-.58.623-1.429.623-2.547 0-.99-.213-1.776-.64-2.356-.428-.58-1.008-.87-1.742-.87-.72 0-1.294.285-1.718.856-.424.571-.636 1.425-.636 2.56zm19.59 4.803h-2.21v-8.03h-3.836v8.03h-2.21v-9.807h8.256v9.807zm9.126.182c-1.4 0-2.535-.44-3.405-1.319-.87-.88-1.305-2.05-1.305-3.512v-.272c0-.98.19-1.854.568-2.624.38-.77.911-1.37 1.596-1.8a4.228 4.228 0 0 1 2.291-.643c1.34 0 2.374.426 3.105 1.278.73.852 1.095 2.058 1.095 3.617v.888h-6.427c.066.81.338 1.45.813 1.921.476.472 1.075.707 1.796.707 1.012 0 1.836-.408 2.473-1.223l1.19 1.133a3.974 3.974 0 0 1-1.577 1.364c-.657.323-1.395.485-2.213.485zm-.264-8.402c-.606 0-1.096.211-1.468.634-.373.423-.611 1.012-.714 1.767h4.21v-.163c-.05-.737-.246-1.294-.592-1.672-.345-.378-.824-.566-1.436-.566zm16.98 3.417c0 1.516-.345 2.726-1.036 3.63-.69.903-1.618 1.355-2.782 1.355-1.078 0-1.942-.354-2.59-1.06v4.649h-2.21V55.162h2.037l.09.997c.649-.785 1.53-1.178 2.646-1.178 1.2 0 2.141.446 2.823 1.337.682.891 1.023 2.129 1.023 3.712v.136zm-2.2-.19c0-.98-.195-1.756-.586-2.33-.39-.574-.95-.861-1.677-.861-.903 0-1.552.371-1.946 1.115v4.35c.4.762 1.055 1.142 1.964 1.142.703 0 1.253-.282 1.65-.847s.596-1.422.596-2.57zm10.845 5.175c-1.4 0-2.535-.44-3.405-1.319-.87-.88-1.305-2.05-1.305-3.512v-.272c0-.98.19-1.854.569-2.624.378-.77.91-1.37 1.595-1.8a4.228 4.228 0 0 1 2.291-.643c1.34 0 2.375.426 3.105 1.278.73.852 1.095 2.058 1.095 3.617v.888h-6.427c.066.81.338 1.45.813 1.921.476.472 1.075.707 1.796.707 1.012 0 1.836-.408 2.473-1.223l1.19 1.133a3.974 3.974 0 0 1-1.577 1.364c-.657.323-1.395.485-2.213.485zm-.264-8.402c-.606 0-1.095.211-1.468.634-.373.423-.61 1.012-.714 1.767h4.21v-.163c-.049-.737-.246-1.294-.591-1.672-.346-.378-.825-.566-1.437-.566zm8.535 8.22v-9.807h3.991c1.346 0 2.37.235 3.073.703.703.468 1.055 1.14 1.055 2.017 0 .453-.141.86-.423 1.219-.282.36-.699.636-1.25.829.642.133 1.151.402 1.527.807.376.405.564.882.564 1.432 0 .912-.338 1.607-1.014 2.084-.676.478-1.647.716-2.914.716h-4.609zm2.21-4.178v2.438h2.418c1.133 0 1.7-.405 1.7-1.214 0-.816-.576-1.224-1.728-1.224h-2.39zm0-1.577h1.818c1.254 0 1.881-.369 1.881-1.106 0-.773-.594-1.172-1.781-1.196h-1.919v2.302zm10.262.761c0-.96.19-1.826.572-2.596.382-.77.919-1.363 1.61-1.777.69-.414 1.484-.62 2.381-.62 1.328 0 2.405.425 3.232 1.277.828.852 1.275 1.982 1.341 3.39l.01.517c0 .966-.187 1.83-.56 2.592a4.125 4.125 0 0 1-1.6 1.767c-.694.417-1.495.626-2.404.626-1.388 0-2.499-.461-3.332-1.382-.834-.922-1.25-2.15-1.25-3.685v-.109zm2.209.19c0 1.01.209 1.8.627 2.37.418.572 1 .857 1.746.857.745 0 1.325-.29 1.74-.87.416-.58.623-1.429.623-2.547 0-.99-.213-1.776-.64-2.356-.428-.58-1.008-.87-1.742-.87-.72 0-1.294.285-1.718.856-.424.571-.636 1.425-.636 2.56zm18.699-2.32c0 .435-.132.836-.396 1.201-.263.366-.635.657-1.113.875 1.127.393 1.69 1.151 1.69 2.275 0 .9-.366 1.618-1.1 2.153-.733.534-1.715.802-2.945.802-.752 0-1.436-.126-2.055-.376-.618-.251-1.1-.608-1.445-1.07-.346-.462-.518-1.01-.518-1.645h2.2c0 .399.178.733.536 1.002.358.268.81.403 1.355.403.54 0 .968-.126 1.286-.376.318-.251.477-.579.477-.984 0-.477-.139-.821-.418-1.033-.279-.211-.709-.317-1.29-.317h-1.583v-1.586h1.637c.988-.012 1.482-.417 1.482-1.215 0-.399-.143-.71-.428-.934-.284-.223-.675-.335-1.172-.335-.485 0-.894.12-1.228.358-.333.239-.5.54-.5.902h-2.2c0-.864.364-1.573 1.091-2.125.727-.553 1.652-.83 2.773-.83 1.218 0 2.167.248 2.846.743.678.496 1.018 1.2 1.018 2.112zm7.998 3.245h-1.118v3.88h-2.21v-9.808h2.21v3.916h.973l2.718-3.916h2.728l-3.555 4.695 3.855 5.112h-2.873l-2.728-3.879zm15.4-5.928h2.2v9.807h-2.2v-6.544l-3.855 6.544h-2.2v-9.807h2.2v6.544l3.854-6.544z" fill="#7D94CC"/><path d="M25.066 27.798v-4.595H4.853A4.835 4.835 0 0 0 0 28.041v15.384a4.835 4.835 0 0 0 4.853 4.838h20.213v-4.594H4.853a.238.238 0 0 1-.245-.244V28.041c0-.139.105-.243.245-.243h20.213zm24.519 15.627c0 .14-.105.244-.21.244h-15.43a.238.238 0 0 1-.245-.244V23.203h-4.608v20.222a4.835 4.835 0 0 0 4.853 4.838h15.43c2.654 0 4.853-2.158 4.853-4.838V23.203h-4.643v20.222zm34.05-15.349c0-2.645-2.2-4.838-4.888-4.838H58.499v25.025h4.608v-8.597h8.239l7.261 8.597h5.027V47.08l-6.249-7.414h1.362c2.688 0 4.887-2.193 4.887-4.838v-6.752zM63.35 35.072a.238.238 0 0 1-.244-.244v-6.752c0-.14.105-.244.244-.244h15.396c.14 0 .244.105.244.244v6.752c0 .14-.104.244-.244.244H63.351zm49.41-7.03c0-2.68-2.199-4.839-4.852-4.839h-15.43a4.835 4.835 0 0 0-4.853 4.838v5.151a4.835 4.835 0 0 0 4.853 4.838h15.43c.105 0 .21.105.21.244v5.151c0 .14-.105.244-.21.244h-15.43a.238.238 0 0 1-.245-.244v-1.914h-4.608v1.914a4.835 4.835 0 0 0 4.853 4.838h15.43c2.653 0 4.853-2.158 4.853-4.838v-5.151c0-2.68-2.2-4.838-4.853-4.838h-15.43a.238.238 0 0 1-.245-.244v-5.15c0-.14.105-.244.245-.244h15.43c.105 0 .21.104.21.243v1.915h4.643V28.04z" fill="#FFF"/><path d="M137.385 43.425c0 .14-.104.244-.21.244h-15.43a.238.238 0 0 1-.244-.244V23.203h-4.608v20.222a4.835 4.835 0 0 0 4.852 4.838h15.43c2.654 0 4.853-2.158 4.853-4.838V23.203h-4.643v20.222zm33.91-15.384c0-2.68-2.2-4.838-4.852-4.838h-15.43a4.835 4.835 0 0 0-4.853 4.838v5.151a4.835 4.835 0 0 0 4.852 4.838h15.43c.105 0 .21.105.21.244v5.151c0 .14-.105.244-.21.244h-15.43a.238.238 0 0 1-.244-.244v-1.914h-4.608v1.914a4.835 4.835 0 0 0 4.852 4.838h15.43c2.654 0 4.853-2.158 4.853-4.838v-5.151c0-2.68-2.2-4.838-4.852-4.838h-15.43a.238.238 0 0 1-.245-.244v-5.15c0-.14.105-.244.244-.244h15.43c.105 0 .21.104.21.243v1.915h4.643V28.04z" fill="#7D94CC"/><path d="M160.59 9.055c0 8.664 9.222 19.95 9.222 19.95s9.396-11.288 9.396-19.95c0-5.008-4.167-9.055-9.31-9.055-5.142 0-9.309 4.045-9.309 9.055zm9.309 5.01c-2.778 0-5.027-2.193-5.027-4.899s2.249-4.9 5.027-4.9c2.774 0 5.025 2.194 5.025 4.9 0 2.706-2.25 4.9-5.025 4.9z" fill="#FFF"/></g></svg>