<?xml version="1.0" encoding="UTF-8" standalone="no"?>
<svg width="50px" height="50px" viewBox="0 0 50 50" version="1.1" xmlns="http://www.w3.org/2000/svg" xmlns:xlink="http://www.w3.org/1999/xlink">
    <!-- Generator: Sketch 39.1 (31720) - http://www.bohemiancoding.com/sketch -->
    <title>1458841307_11</title>
    <desc>Created with Sketch.</desc>
    <defs></defs>
    <g id="Page-1" stroke="none" stroke-width="1" fill="none" fill-rule="evenodd">
        <g id="Guideline" transform="translate(-829.000000, -287.000000)">
            <g id="social" transform="translate(829.000000, 287.000000)">
                <g id="vk">
                    <g id="1458841307_11">
                        <path d="M45.8333333,0 L4.16666667,0 C1.875,0 0,1.875 0,4.16666667 L0,45.8333333 C0,48.125 1.875,50 4.16666667,50 L45.8333333,50 C48.125,50 50,48.125 50,45.8333333 L50,4.16666667 C50,1.875 48.125,0 45.8333333,0 L45.8333333,0 Z" id="Shape" fill="#54769B"></path>
                        <path d="M26.0416667,34.375 C27.0833333,34.375 27.0833333,32.9166667 27.0833333,32.2916667 C27.0833333,31.25 28.125,30.2083333 29.1666667,30.2083333 C30.2083333,30.2083333 31.9791667,31.9791667 33.3333333,33.3333333 C34.375,34.375 34.375,34.375 35.4166667,34.375 L38.5416667,34.375 C38.5416667,34.375 40.625,34.2708333 40.625,32.2916667 C40.625,31.6666667 39.8958333,30.5208333 37.5,28.125 C35.4166667,26.0416667 34.375,27.0833333 37.5,22.9166667 C39.375,20.3125 40.8333333,18.0208333 40.625,17.3958333 C40.4166667,16.7708333 35.1041667,15.7291667 34.375,16.6666667 C32.2916667,19.7916667 31.875,20.5208333 31.25,21.875 C30.2083333,23.9583333 30.1041667,25 29.1666667,25 C28.2291667,25 28.125,23.0208333 28.125,21.875 C28.125,18.4375 28.6458333,16.0416667 27.0833333,15.625 L23.9583333,15.625 C22.2916667,15.625 20.8333333,16.6666667 20.8333333,16.6666667 C20.8333333,16.6666667 19.5833333,17.7083333 19.7916667,17.7083333 C20.1041667,17.7083333 21.875,17.2916667 21.875,18.75 L21.875,20.8333333 C21.875,20.8333333 21.875,25 20.8333333,25 C19.7916667,25 17.7083333,20.8333333 15.625,17.7083333 C14.7916667,16.4583333 14.5833333,16.6666667 13.5416667,16.6666667 L10.4166667,16.6666667 C9.375,16.6666667 9.27083333,17.2916667 9.375,17.7083333 C11.4583333,22.9166667 12.9166667,26.1458333 16.875,30.3125 C20.5208333,34.0625 22.9166667,34.2708333 25,34.375 L26.0416667,34.375 L26.0416667,34.375 Z" id="VK_1_" fill="#FFFFFF"></path>
                    </g>
                </g>
            </g>
        </g>
    </g>
</svg>