<?xml version="1.0" encoding="UTF-8" standalone="no"?>
<svg width="23px" height="18px" viewBox="0 0 23 18" version="1.1" xmlns="http://www.w3.org/2000/svg" xmlns:xlink="http://www.w3.org/1999/xlink">
    <!-- Generator: Sketch 39.1 (31720) - http://www.bohemiancoding.com/sketch -->
    <title>camera</title>
    <desc>Created with Sketch.</desc>
    <defs></defs>
    <g id="Page-1" stroke="none" stroke-width="1" fill="none" fill-rule="evenodd">
        <g id="Guideline" transform="translate(-1132.000000, -378.000000)" fill="#272E40">
            <g id="camera" transform="translate(1132.000000, 378.000000)">
                <g id="Camera">
                    <path d="M11.5,6.75 C9.59445,6.75 8.05,8.262 8.05,10.125 C8.05,11.988 9.59445,13.5 11.5,13.5 C13.4044,13.5 14.95,11.988 14.95,10.125 C14.95,8.262 13.4044,6.75 11.5,6.75 L11.5,6.75 Z M20.7,3.375 L17.94,3.375 C17.5605,3.375 17.1511,3.087 17.03265,2.73375 L16.3185,0.640125 C16.19775,0.288 15.79065,0 15.41,0 L7.59,0 C7.2105,0 6.8011,0.288 6.68265,0.639 L5.96735,2.73375 C5.84775,3.087 5.4395,3.375 5.06,3.375 L2.3,3.375 C1.035,3.375 0,4.3875 0,5.625 L0,15.75 C0,16.9875 1.035,18 2.3,18 L20.7,18 C21.965,18 23,16.9875 23,15.75 L23,5.625 C23,4.3875 21.965,3.375 20.7,3.375 L20.7,3.375 Z M11.5,15.75 C8.3237,15.75 5.75,13.23225 5.75,10.125 C5.75,7.01775 8.3237,4.5 11.5,4.5 C14.67515,4.5 17.25,7.01775 17.25,10.125 C17.25,13.23225 14.67515,15.75 11.5,15.75 L11.5,15.75 Z M20.125,6.975 C19.67995,6.975 19.32,6.62175 19.32,6.186375 C19.32,5.75325 19.67995,5.398875 20.125,5.398875 C20.57005,5.398875 20.93,5.752125 20.93,6.186375 C20.93,6.62175 20.57005,6.975 20.125,6.975 L20.125,6.975 Z" id="Shape"></path>
                </g>
            </g>
        </g>
    </g>
</svg>