<?xml version="1.0" encoding="UTF-8" standalone="no"?>
<svg width="22px" height="22px" viewBox="0 0 22 22" version="1.1" xmlns="http://www.w3.org/2000/svg" xmlns:xlink="http://www.w3.org/1999/xlink">
    <!-- Generator: Sketch 39.1 (31720) - http://www.bohemiancoding.com/sketch -->
    <title>circle with cross</title>
    <desc>Created with Sketch.</desc>
    <defs></defs>
    <g id="Page-1" stroke="none" stroke-width="1" fill="none" fill-rule="evenodd">
        <g id="CR_Mobile_Menu" transform="translate(-270.000000, -25.000000)" fill="#7D94CC">
            <g id="circle-with-cross" transform="translate(270.000000, 25.000000)">
                <path d="M11,-7.10542736e-15 C4.92511905,-7.10542736e-15 3.35731443e-13,4.92511905 3.35731443e-13,11 C3.35731443e-13,17.074881 4.92511905,22 11,22 C17.074881,22 22,17.074881 22,11 C22,4.92511905 17.074881,-7.10542736e-15 11,-7.10542736e-15 L11,-7.10542736e-15 Z M17.2713095,15.0084524 L15.0071429,17.272619 L11,13.2641667 L6.99154762,17.2713095 L4.72738095,15.0071429 L8.73714286,11 L4.72869048,6.99154762 L6.99285714,4.72869048 L11,8.73583333 L15.0084524,4.72738095 L17.272619,6.99154762 L13.2628571,11 L17.2713095,15.0084524 L17.2713095,15.0084524 Z" id="Shape"></path>
            </g>
        </g>
    </g>
</svg>