<?xml version="1.0" encoding="UTF-8" standalone="no"?>
<svg width="22px" height="22px" viewBox="0 0 22 22" version="1.1" xmlns="http://www.w3.org/2000/svg" xmlns:xlink="http://www.w3.org/1999/xlink">
    <!-- Generator: Sketch 39.1 (31720) - http://www.bohemiancoding.com/sketch -->
    <title>НАЙТИ ГРУЗ + compass</title>
    <desc>Created with Sketch.</desc>
    <defs></defs>
    <g id="Page-1" stroke="none" stroke-width="1" fill="none" fill-rule="evenodd">
        <g id="Guideline" transform="translate(-829.000000, -377.000000)" fill="#7D94CC">
            <g id="НАЙТИ-ГРУЗ-+-compass" transform="translate(829.000000, 377.000000)">
                <g id="compass">
                    <path d="M5.79074007,16.2104057 C5.79074007,16.2104057 11.0246341,15.4920056 13.2588928,13.2588928 C15.4931514,11.0257799 16.2104057,5.79074007 16.2104057,5.79074007 C16.2104057,5.79074007 10.9753659,6.50914015 8.74225301,8.74225301 C6.50914015,10.9753659 5.79074007,16.2104057 5.79074007,16.2104057 L5.79074007,16.2104057 Z M9.87313161,9.87084006 C10.8103745,8.93359721 12.6058018,8.26675694 14.1457216,7.85198688 C13.7320973,9.38961512 13.0629655,11.197646 12.1291599,12.1280142 C11.5070048,12.7524608 10.4952867,12.7524608 9.87313161,12.1280142 C9.24868496,11.5058591 9.24868496,10.4952867 9.87313161,9.87084006 L9.87313161,9.87084006 Z M11.0005729,7.10542736e-15 C4.92453518,7.10542736e-15 0,4.92453518 0,10.9994271 C0,17.0754648 4.92453518,22 11.0005729,22 C17.074319,22 22,17.0754648 22,10.9994271 C22,4.92453518 17.074319,7.10542736e-15 11.0005729,7.10542736e-15 L11.0005729,7.10542736e-15 Z M10.9994271,19.7073069 C6.19061507,19.7073069 2.29154732,15.8093849 2.29154732,10.9994271 C2.29154732,6.19061507 6.1894693,2.29154732 10.9994271,2.29154732 C15.8082392,2.29154732 19.7084527,6.1894693 19.7084527,10.9994271 C19.7084527,15.8082392 15.8082392,19.7073069 10.9994271,19.7073069 L10.9994271,19.7073069 Z" id="Shape"></path>
                </g>
            </g>
        </g>
    </g>
</svg>