<?xml version="1.0" encoding="UTF-8" standalone="no"?>
<svg width="24px" height="21px" viewBox="0 0 24 21" version="1.1" xmlns="http://www.w3.org/2000/svg" xmlns:xlink="http://www.w3.org/1999/xlink">
    <!-- Generator: Sketch 39.1 (31720) - http://www.bohemiancoding.com/sketch -->
    <title>download</title>
    <desc>Created with Sketch.</desc>
    <defs></defs>
    <g id="Page-1" stroke="none" stroke-width="1" fill="none" fill-rule="evenodd">
        <g id="Guideline" transform="translate(-1246.000000, -375.000000)" fill="#5082FF">
            <g id="download" transform="translate(1246.000000, 375.000000)">
                <g id="Download">
                    <path d="M17.8571429,7 L14.2857143,7 L14.2857143,0 L9.52380952,0 L9.52380952,7 L5.95238095,7 L11.9047619,12.8333333 L17.8571429,7 L17.8571429,7 Z M23.0214286,14.6206667 C22.7714286,14.3593333 21.1035714,12.6105 20.627381,12.1543333 C20.3119048,11.8521667 19.8607143,11.6666667 19.3869048,11.6666667 L17.2952381,11.6666667 L20.9428571,15.1596667 L16.7238095,15.1596667 C16.602381,15.1596667 16.4928571,15.2203333 16.4380952,15.3148333 L15.4666667,17.5 L8.34285714,17.5 L7.37142857,15.3148333 C7.31666667,15.2203333 7.20595238,15.1596667 7.08571429,15.1596667 L2.86666667,15.1596667 L6.51309524,11.6666667 L4.42261905,11.6666667 C3.95,11.6666667 3.49880952,11.8521667 3.18214286,12.1543333 C2.70595238,12.6116667 1.03809524,14.3605 0.788095238,14.6206667 C0.205952381,15.2285 -0.114285714,15.7126667 0.0380952381,16.3111667 L0.705952381,19.8975 C0.858333333,20.4971667 1.52857143,20.9895 2.19642857,20.9895 L21.6154762,20.9895 C22.2833333,20.9895 22.9535714,20.4971667 23.1059524,19.8975 L23.7738095,16.3111667 C23.9238095,15.7126667 23.6047619,15.2285 23.0214286,14.6206667 L23.0214286,14.6206667 Z" id="Shape"></path>
                </g>
            </g>
        </g>
    </g>
</svg>