<?xml version="1.0" encoding="UTF-8" standalone="no"?>
<svg width="18px" height="18px" viewBox="0 0 18 18" version="1.1" xmlns="http://www.w3.org/2000/svg" xmlns:xlink="http://www.w3.org/1999/xlink">
    <!-- Generator: Sketch 39.1 (31720) - http://www.bohemiancoding.com/sketch -->
    <title>edit</title>
    <desc>Created with Sketch.</desc>
    <defs></defs>
    <g id="Page-1" stroke="none" stroke-width="1" fill="none" fill-rule="evenodd">
        <g id="Guideline" transform="translate(-1178.000000, -378.000000)" fill="#272E40">
            <g id="edit" transform="translate(1178.000000, 378.000000)">
                <g id="Edit">
                    <path d="M16.561,1.439 C15.119,-0.004 14.036,0.212 14.036,0.212 L7.984,6.264 L1.21,13.037 L0.2,17.799 L4.963,16.789 L11.737,10.018 L17.789,3.966 C17.788,3.966 18.005,2.883 16.561,1.439 L16.561,1.439 Z M4.68,16.217 L3.056,16.567 C2.9,16.274 2.711,15.981 2.366,15.635 C2.02,15.289 1.727,15.102 1.434,14.944 L1.784,13.321 L2.254,12.852 C2.254,12.852 3.137,12.87 4.135,13.868 C5.132,14.864 5.151,15.749 5.151,15.749 L4.68,16.217 L4.68,16.217 Z" id="Shape"></path>
                </g>
            </g>
        </g>
    </g>
</svg>