<?xml version="1.0" encoding="UTF-8" standalone="no"?>
<svg width="180px" height="69px" viewBox="0 0 180 69" version="1.1" xmlns="http://www.w3.org/2000/svg" xmlns:xlink="http://www.w3.org/1999/xlink">
    <!-- Generator: Sketch 39.1 (31720) - http://www.bohemiancoding.com/sketch -->
    <title>Group 3</title>
    <desc>Created with Sketch.</desc>
    <defs></defs>
    <g id="Page-1" stroke="none" stroke-width="1" fill="none" fill-rule="evenodd">
        <g id="Guideline" transform="translate(-857.000000, -570.000000)">
            <g id="Group-3" transform="translate(857.000000, 570.000000)">
                <path d="M7.68217715,56.9389251 L3.40925021,56.9389251 L3.40925021,64.9694708 L1.20914741,64.9694708 L1.20914741,55.1624162 L7.68217715,55.1624162 L7.68217715,56.9389251 Z M19.9900249,60.1656455 C19.9900249,61.6823325 19.6445576,62.8923405 18.9536128,63.7957059 C18.262668,64.6990713 17.3353612,65.1507472 16.1716646,65.1507472 C15.092821,65.1507472 14.2291529,64.7972617 13.5806345,64.0902801 L13.5806345,68.7400204 L11.3714403,68.7400204 L11.3714403,55.1624162 L13.4078991,55.1624162 L13.4988125,56.1594365 C14.1473309,55.3739014 15.0291814,54.9811397 16.1443906,54.9811397 C17.3444527,54.9811397 18.2853964,55.4267732 18.9672498,56.3180534 C19.6491033,57.2093336 19.9900249,58.4465328 19.9900249,60.0296882 L19.9900249,60.1656455 Z M17.7899221,59.9753053 C17.7899221,58.9964077 17.5944603,58.2199481 17.203531,57.6459032 C16.8126017,57.0718583 16.2534903,56.7848402 15.5261799,56.7848402 C14.6231029,56.7848402 13.9745942,57.1564531 13.5806345,57.8996902 L13.5806345,62.2503244 C13.9806552,63.0116892 14.6352247,63.3923659 15.5443626,63.3923659 C16.2474293,63.3923659 16.7974495,63.1098796 17.1944397,62.5448986 C17.5914299,61.9799176 17.7899221,61.123395 17.7899221,59.9753053 L17.7899221,59.9753053 Z M27.6431096,61.815261 L29.6432031,55.1624162 L31.9978586,55.1624162 L28.088585,66.4559375 C27.488554,68.1055612 26.4703348,68.9303607 25.0338968,68.9303607 C24.7126681,68.9303607 24.3581096,68.8759783 23.9702107,68.7672119 L23.9702107,67.0632135 L24.3884121,67.0904049 C24.9460167,67.0904049 25.3657291,66.9891933 25.6475619,66.7867669 C25.9293946,66.5843406 26.1521301,66.2444507 26.3157749,65.767087 L26.6339716,64.9241517 L23.1792647,55.1624162 L25.5611942,55.1624162 L27.6431096,61.815261 Z M43.1601982,57.8453073 C43.1601982,58.2803729 43.0283752,58.6806876 42.7647252,59.0462636 C42.5010752,59.4118395 42.1298495,59.7033895 41.6510368,59.9209223 C42.7783679,60.3136899 43.3420249,61.072022 43.3420249,62.1959415 C43.3420249,63.0962855 42.9753448,63.8138309 42.2419735,64.348599 C41.5086022,64.8833671 40.526748,65.1507472 39.2963813,65.1507472 C38.5448273,65.1507472 37.8599537,65.0253656 37.2417399,64.7745986 C36.6235261,64.5238316 36.1416902,64.1673249 35.7962178,63.7050677 C35.4507454,63.2428105 35.2780117,62.6944548 35.2780117,62.0599841 L37.4781146,62.0599841 C37.4781146,62.4587943 37.656909,62.7926417 38.0145033,63.0615364 C38.3720975,63.3304311 38.8236292,63.4648764 39.369112,63.4648764 C39.9085338,63.4648764 40.3373375,63.3394948 40.6555358,63.0887279 C40.973734,62.8379609 41.1328308,62.510156 41.1328308,62.1053033 C41.1328308,61.6279396 40.9934317,61.2835178 40.7146294,61.0720276 C40.4358271,60.8605374 40.0055083,60.7547939 39.42366,60.7547939 L37.8417679,60.7547939 L37.8417679,59.1686252 L39.478208,59.1686252 C40.4661379,59.15654 40.9600954,58.7516934 40.9600954,57.9540731 C40.9600954,57.555263 40.817666,57.2440749 40.5328027,57.0204995 C40.2479395,56.7969242 39.8570161,56.6851381 39.3600207,56.6851381 C38.8751471,56.6851381 38.4660412,56.8044773 38.1326906,57.0431591 C37.79934,57.2818409 37.6326672,57.5824546 37.6326672,57.9450093 L35.4325644,57.9450093 C35.4325644,57.0809207 35.7962141,56.3724391 36.5235245,55.8195432 C37.2508348,55.2666473 38.1751112,54.9902036 39.2963813,54.9902036 C40.5146262,54.9902036 41.4631459,55.2379455 42.1419688,55.7334369 C42.8207918,56.2289283 43.1601982,56.932878 43.1601982,57.8453073 L43.1601982,57.8453073 Z M47.2494801,59.9753053 C47.2494801,59.0145354 47.4403962,58.1489491 47.8222342,57.3785205 C48.2040721,56.6080918 48.7404554,56.0159281 49.4314003,55.6020115 C50.1223451,55.1880949 50.9163136,54.9811397 51.8133297,54.9811397 C53.1406711,54.9811397 54.2179834,55.4071351 55.0452989,56.2591385 C55.8726145,57.111142 56.3196006,58.2410871 56.3862707,59.6490077 L56.395362,60.1656455 C56.395362,61.1324579 56.2089915,61.9965336 55.836245,62.7578984 C55.4634984,63.5192632 54.9301455,64.1084057 54.2361702,64.5253435 C53.5421949,64.9422814 52.7406503,65.1507472 51.8315124,65.1507472 C50.4435618,65.1507472 49.332915,64.6900076 48.4995385,63.7685145 C47.6661621,62.8470213 47.2494801,61.6188859 47.2494801,60.0840711 L47.2494801,59.9753053 Z M49.4586743,60.1656455 C49.4586743,61.174756 49.6677728,61.9648112 50.0859763,62.5358348 C50.5041797,63.1068584 51.0860193,63.3923659 51.8315124,63.3923659 C52.5770055,63.3923659 53.1573299,63.1023265 53.5725029,62.522239 C53.9876758,61.9421516 54.1952592,61.0931821 54.1952592,59.9753053 C54.1952592,58.9843225 53.981615,58.1987992 53.5543202,57.6187117 C53.1270254,57.0386243 52.546701,56.7485849 51.8133297,56.7485849 C51.0920803,56.7485849 50.519332,57.0340924 50.0950676,57.605116 C49.6708033,58.1761396 49.4586743,59.0296409 49.4586743,60.1656455 L49.4586743,60.1656455 Z M69.0486804,64.9694708 L66.8394863,64.9694708 L66.8394863,56.9389251 L63.0029434,56.9389251 L63.0029434,64.9694708 L60.7937493,64.9694708 L60.7937493,55.1624162 L69.0486804,55.1624162 L69.0486804,64.9694708 Z M78.1745613,65.1507472 C76.7744889,65.1507472 75.6395987,64.7111563 74.7698568,63.8319612 C73.9001148,62.9527661 73.4652503,61.7820343 73.4652503,60.3197305 L73.4652503,60.0478158 C73.4652503,59.0689182 73.6546512,58.1942682 74.0334587,57.4238396 C74.4122662,56.6534109 74.9441039,56.0536941 75.6289878,55.6246711 C76.3138717,55.195648 77.0775361,54.9811397 77.920004,54.9811397 C79.2594672,54.9811397 80.2943537,55.4071351 81.0246945,56.2591385 C81.7550353,57.111142 82.1202002,58.3166182 82.1202002,59.8756032 L82.1202002,60.7638577 L75.6926271,60.7638577 C75.7592973,61.5735631 76.0305193,62.2140667 76.5063015,62.6853878 C76.9820837,63.1567089 77.5805906,63.3923659 78.30184,63.3923659 C79.3140135,63.3923659 80.1382862,62.984498 80.7746828,62.16875 L81.9656475,63.3017277 C81.5716878,63.8878577 81.0459109,64.3425548 80.3883011,64.6658328 C79.7306913,64.9891107 78.9927854,65.1507472 78.1745613,65.1507472 L78.1745613,65.1507472 Z M77.9109126,56.7485849 C77.3048207,56.7485849 76.8154088,56.9600719 76.4426622,57.3830524 C76.0699156,57.8060328 75.8320281,58.3951753 75.7289925,59.1504975 L79.9382801,59.1504975 L79.9382801,58.9873487 C79.8897927,58.2501543 79.6928158,57.6927348 79.3473434,57.3150737 C79.001871,56.9374126 78.5230655,56.7485849 77.9109126,56.7485849 L77.9109126,56.7485849 Z M94.891706,60.1656455 C94.891706,61.6823325 94.5462387,62.8923405 93.8552939,63.7957059 C93.1643491,64.6990713 92.2370423,65.1507472 91.0733457,65.1507472 C89.9945021,65.1507472 89.130834,64.7972617 88.4823156,64.0902801 L88.4823156,68.7400204 L86.2731214,68.7400204 L86.2731214,55.1624162 L88.3095802,55.1624162 L88.4004936,56.1594365 C89.049012,55.3739014 89.9308625,54.9811397 91.0460717,54.9811397 C92.2461338,54.9811397 93.1870775,55.4267732 93.8689309,56.3180534 C94.5507844,57.2093336 94.891706,58.4465328 94.891706,60.0296882 L94.891706,60.1656455 Z M92.6916032,59.9753053 C92.6916032,58.9964077 92.4961414,58.2199481 92.1052121,57.6459032 C91.7142828,57.0718583 91.1551714,56.7848402 90.427861,56.7848402 C89.524784,56.7848402 88.8762753,57.1564531 88.4823156,57.8996902 L88.4823156,62.2503244 C88.8823363,63.0116892 89.5369058,63.3923659 90.4460437,63.3923659 C91.1491104,63.3923659 91.6991306,63.1098796 92.0961208,62.5448986 C92.493111,61.9799176 92.6916032,61.123395 92.6916032,59.9753053 L92.6916032,59.9753053 Z M103.535746,65.1507472 C102.135674,65.1507472 101.000784,64.7111563 100.131042,63.8319612 C99.2612996,62.9527661 98.8264352,61.7820343 98.8264352,60.3197305 L98.8264352,60.0478158 C98.8264352,59.0689182 99.0158361,58.1942682 99.3946435,57.4238396 C99.773451,56.6534109 100.305289,56.0536941 100.990173,55.6246711 C101.675057,55.195648 102.438721,54.9811397 103.281189,54.9811397 C104.620652,54.9811397 105.655539,55.4071351 106.385879,56.2591385 C107.11622,57.111142 107.481385,58.3166182 107.481385,59.8756032 L107.481385,60.7638577 L101.053812,60.7638577 C101.120482,61.5735631 101.391704,62.2140667 101.867486,62.6853878 C102.343269,63.1567089 102.941775,63.3923659 103.663025,63.3923659 C104.675198,63.3923659 105.499471,62.984498 106.135868,62.16875 L107.326832,63.3017277 C106.932873,63.8878577 106.407096,64.3425548 105.749486,64.6658328 C105.091876,64.9891107 104.35397,65.1507472 103.535746,65.1507472 L103.535746,65.1507472 Z M103.272097,56.7485849 C102.666006,56.7485849 102.176594,56.9600719 101.803847,57.3830524 C101.4311,57.8060328 101.193213,58.3951753 101.090177,59.1504975 L105.299465,59.1504975 L105.299465,58.9873487 C105.250978,58.2501543 105.054001,57.6927348 104.708528,57.3150737 C104.363056,56.9374126 103.88425,56.7485849 103.272097,56.7485849 L103.272097,56.7485849 Z M111.807042,64.9694708 L111.807042,55.1624162 L115.798137,55.1624162 C117.143661,55.1624162 118.167941,55.3965625 118.871008,55.8648623 C119.574075,56.3331621 119.925603,57.0053888 119.925603,57.8815625 C119.925603,58.3347559 119.784689,58.7411131 119.502856,59.1006465 C119.221023,59.4601799 118.804341,59.7366237 118.252797,59.9299861 C118.895255,60.0629229 119.404364,60.3318135 119.780141,60.7366662 C120.155918,61.1415189 120.343804,61.6188754 120.343804,62.16875 C120.343804,63.0811792 120.005913,63.7760652 119.33012,64.2534289 C118.654328,64.7307925 117.68308,64.9694708 116.416348,64.9694708 L111.807042,64.9694708 Z M114.016236,60.7910492 L114.016236,63.2292171 L116.434531,63.2292171 C117.567923,63.2292171 118.13461,62.8243705 118.13461,62.014665 C118.13461,61.198917 117.558831,60.7910492 116.407257,60.7910492 L114.016236,60.7910492 Z M114.016236,59.2139443 L115.834503,59.2139443 C117.089113,59.2139443 117.716409,58.8453526 117.716409,58.1081581 C117.716409,57.3347081 117.122447,56.935904 115.934507,56.9117337 L114.016236,56.9117337 L114.016236,59.2139443 Z M124.278533,59.9753053 C124.278533,59.0145354 124.469449,58.1489491 124.851287,57.3785205 C125.233125,56.6080918 125.769509,56.0159281 126.460453,55.6020115 C127.151398,55.1880949 127.945367,54.9811397 128.842383,54.9811397 C130.169724,54.9811397 131.247037,55.4071351 132.074352,56.2591385 C132.901668,57.111142 133.348654,58.2410871 133.415324,59.6490077 L133.424415,60.1656455 C133.424415,61.1324579 133.238045,61.9965336 132.865298,62.7578984 C132.492552,63.5192632 131.959199,64.1084057 131.265223,64.5253435 C130.571248,64.9422814 129.769704,65.1507472 128.860566,65.1507472 C127.472615,65.1507472 126.361968,64.6900076 125.528592,63.7685145 C124.695215,62.8470213 124.278533,61.6188859 124.278533,60.0840711 L124.278533,59.9753053 Z M126.487727,60.1656455 C126.487727,61.174756 126.696826,61.9648112 127.11503,62.5358348 C127.533233,63.1068584 128.115073,63.3923659 128.860566,63.3923659 C129.606059,63.3923659 130.186383,63.1023265 130.601556,62.522239 C131.016729,61.9421516 131.224312,61.0931821 131.224312,59.9753053 C131.224312,58.9843225 131.010668,58.1987992 130.583373,57.6187117 C130.156079,57.0386243 129.575754,56.7485849 128.842383,56.7485849 C128.121134,56.7485849 127.548385,57.0340924 127.124121,57.605116 C126.699856,58.1761396 126.487727,59.0296409 126.487727,60.1656455 L126.487727,60.1656455 Z M145.186783,57.8453073 C145.186783,58.2803729 145.05496,58.6806876 144.79131,59.0462636 C144.52766,59.4118395 144.156434,59.7033895 143.677622,59.9209223 C144.804953,60.3136899 145.36861,61.072022 145.36861,62.1959415 C145.36861,63.0962855 145.001929,63.8138309 144.268558,64.348599 C143.535187,64.8833671 142.553333,65.1507472 141.322966,65.1507472 C140.571412,65.1507472 139.886538,65.0253656 139.268325,64.7745986 C138.650111,64.5238316 138.168275,64.1673249 137.822802,63.7050677 C137.47733,63.2428105 137.304596,62.6944548 137.304596,62.0599841 L139.504699,62.0599841 C139.504699,62.4587943 139.683494,62.7926417 140.041088,63.0615364 C140.398682,63.3304311 140.850214,63.4648764 141.395697,63.4648764 C141.935119,63.4648764 142.363922,63.3394948 142.68212,63.0887279 C143.000319,62.8379609 143.159415,62.510156 143.159415,62.1053033 C143.159415,61.6279396 143.020016,61.2835178 142.741214,61.0720276 C142.462412,60.8605374 142.032093,60.7547939 141.450245,60.7547939 L139.868353,60.7547939 L139.868353,59.1686252 L141.504793,59.1686252 C142.492723,59.15654 142.98668,58.7516934 142.98668,57.9540731 C142.98668,57.555263 142.844251,57.2440749 142.559387,57.0204995 C142.274524,56.7969242 141.883601,56.6851381 141.386605,56.6851381 C140.901732,56.6851381 140.492626,56.8044773 140.159275,57.0431591 C139.825925,57.2818409 139.659252,57.5824546 139.659252,57.9450093 L137.459149,57.9450093 C137.459149,57.0809207 137.822799,56.3724391 138.550109,55.8195432 C139.27742,55.2666473 140.201696,54.9902036 141.322966,54.9902036 C142.541211,54.9902036 143.489731,55.2379455 144.168554,55.7334369 C144.847377,56.2289283 145.186783,56.932878 145.186783,57.8453073 L145.186783,57.8453073 Z M153.185338,61.0901553 L152.067104,61.0901553 L152.067104,64.9694708 L149.85791,64.9694708 L149.85791,55.1624162 L152.067104,55.1624162 L152.067104,59.077987 L153.039877,59.077987 L155.758186,55.1624162 L158.485586,55.1624162 L154.930875,59.8574756 L158.7856,64.9694708 L155.912739,64.9694708 L153.185338,61.0901553 Z M168.58424,55.1624162 L170.784342,55.1624162 L170.784342,64.9694708 L168.58424,64.9694708 L168.58424,58.4253918 L164.729514,64.9694708 L162.529411,64.9694708 L162.529411,55.1624162 L164.729514,55.1624162 L164.729514,61.7064951 L168.58424,55.1624162 Z" id="грузоперевозки" fill="#7D94CC"></path>
                <path d="M25.0658985,27.7976521 L25.0658985,23.2033824 L4.85259038,23.2033824 C2.16446478,23.2033824 0,25.361297 0,28.0412877 L0,43.4251302 C0,46.1051209 2.16446478,48.2630354 4.85259038,48.2630354 L25.0658985,48.2630354 L25.0658985,43.6687657 L4.85259038,43.6687657 C4.7129475,43.6687657 4.60821533,43.5643505 4.60821533,43.4251302 L4.60821533,28.0412877 C4.60821533,27.9020674 4.7129475,27.7976521 4.85259038,27.7976521 L25.0658985,27.7976521 Z M49.5848624,43.4251302 C49.5848624,43.5643505 49.4801303,43.6687657 49.3753981,43.6687657 L33.9448589,43.6687657 C33.805216,43.6687657 33.7004838,43.5643505 33.7004838,43.4251302 L33.7004838,23.2033824 L29.0922685,23.2033824 L29.0922685,43.4251302 C29.0922685,46.1051209 31.2567333,48.2630354 33.9448589,48.2630354 L49.3753981,48.2630354 C52.028613,48.2630354 54.2279885,46.1051209 54.2279885,43.4251302 L54.2279885,23.2033824 L49.5848624,23.2033824 L49.5848624,43.4251302 Z M83.6344535,28.0760927 C83.6344535,25.4309071 81.435078,23.2381875 78.7469524,23.2381875 L58.4987335,23.2381875 L58.4987335,48.2630354 L63.1069488,48.2630354 L63.1069488,39.6661822 L63.211681,39.6661822 L71.3458793,39.6661822 L78.6073095,48.2630354 L83.6344535,48.2630354 L83.6344535,47.0796629 L77.3854342,39.6661822 L78.7469524,39.6661822 C81.435078,39.6661822 83.6344535,37.4734626 83.6344535,34.828277 L83.6344535,28.0760927 Z M63.3513239,35.0719125 C63.211681,35.0719125 63.1069488,34.9674973 63.1069488,34.828277 L63.1069488,28.0760927 C63.1069488,27.9368724 63.211681,27.8324572 63.3513239,27.8324572 L78.7469524,27.8324572 C78.8865953,27.8324572 78.9913274,27.9368724 78.9913274,28.0760927 L78.9913274,34.828277 C78.9913274,34.9674973 78.8865953,35.0719125 78.7469524,35.0719125 L63.3513239,35.0719125 Z M112.761633,28.0412877 C112.761633,25.361297 110.562257,23.2033824 107.909042,23.2033824 L92.4785031,23.2033824 C89.7903775,23.2033824 87.6259127,25.361297 87.6259127,28.0412877 L87.6259127,33.1924385 C87.6259127,35.8724292 89.7903775,38.0303438 92.4785031,38.0303438 L107.909042,38.0303438 C108.013774,38.0303438 108.118507,38.134759 108.118507,38.2739793 L108.118507,43.4251302 C108.118507,43.5643505 108.013774,43.6687657 107.909042,43.6687657 L92.4785031,43.6687657 C92.3388602,43.6687657 92.234128,43.5643505 92.234128,43.4251302 L92.234128,41.5108511 L87.6259127,41.5108511 L87.6259127,43.4251302 C87.6259127,46.1051209 89.7903775,48.2630354 92.4785031,48.2630354 L107.909042,48.2630354 C110.562257,48.2630354 112.761633,46.1051209 112.761633,43.4251302 L112.761633,38.2739793 C112.761633,35.5939886 110.562257,33.4360741 107.909042,33.4360741 L92.4785031,33.4360741 C92.3388602,33.4360741 92.234128,33.3316588 92.234128,33.1924385 L92.234128,28.0412877 C92.234128,27.9020674 92.3388602,27.7976521 92.4785031,27.7976521 L107.909042,27.7976521 C108.013774,27.7976521 108.118507,27.9020674 108.118507,28.0412877 L108.118507,29.9555667 L112.761633,29.9555667 L112.761633,28.0412877 Z" id="CURSUS" fill="#FFFFFF"></path>
                <path d="M137.385329,43.4251302 C137.385329,43.5643505 137.280597,43.6687657 137.175864,43.6687657 L121.745325,43.6687657 C121.605682,43.6687657 121.50095,43.5643505 121.50095,43.4251302 L121.50095,23.2033824 L116.892735,23.2033824 L116.892735,43.4251302 C116.892735,46.1051209 119.0572,48.2630354 121.745325,48.2630354 L137.175864,48.2630354 C139.829079,48.2630354 142.028455,46.1051209 142.028455,43.4251302 L142.028455,23.2033824 L137.385329,23.2033824 L137.385329,43.4251302 Z M171.295277,28.0412877 C171.295277,25.361297 169.095901,23.2033824 166.442687,23.2033824 L151.012147,23.2033824 C148.324022,23.2033824 146.159557,25.361297 146.159557,28.0412877 L146.159557,33.1924385 C146.159557,35.8724292 148.324022,38.0303438 151.012147,38.0303438 L166.442687,38.0303438 C166.547419,38.0303438 166.652151,38.134759 166.652151,38.2739793 L166.652151,43.4251302 C166.652151,43.5643505 166.547419,43.6687657 166.442687,43.6687657 L151.012147,43.6687657 C150.872504,43.6687657 150.767772,43.5643505 150.767772,43.4251302 L150.767772,41.5108511 L146.159557,41.5108511 L146.159557,43.4251302 C146.159557,46.1051209 148.324022,48.2630354 151.012147,48.2630354 L166.442687,48.2630354 C169.095901,48.2630354 171.295277,46.1051209 171.295277,43.4251302 L171.295277,38.2739793 C171.295277,35.5939886 169.095901,33.4360741 166.442687,33.4360741 L151.012147,33.4360741 C150.872504,33.4360741 150.767772,33.3316588 150.767772,33.1924385 L150.767772,28.0412877 C150.767772,27.9020674 150.872504,27.7976521 151.012147,27.7976521 L166.442687,27.7976521 C166.547419,27.7976521 166.652151,27.9020674 166.652151,28.0412877 L166.652151,29.9555667 L171.295277,29.9555667 L171.295277,28.0412877 Z" id="CURSUS" fill="#7D94CC"></path>
                <path d="M160.589322,9.05544479 C160.589322,17.7189104 169.812146,29.004228 169.812146,29.004228 C169.812146,29.004228 179.208374,17.7170957 179.208374,9.05544479 C179.208374,4.04682202 175.04143,0 169.898848,0 C164.756266,0 160.589322,4.0450073 160.589322,9.05544479 Z M169.898848,14.0658823 C167.120885,14.0658823 164.871704,11.8718877 164.871704,9.16614261 C164.871704,6.46039748 167.120885,4.26640294 169.898848,4.26640294 C172.673087,4.26640294 174.92413,6.46039748 174.92413,9.16614261 C174.92413,11.8718877 172.673087,14.0658823 169.898848,14.0658823 L169.898848,14.0658823 Z" id="Shape" fill="#FFFFFF"></path>
            </g>
        </g>
    </g>
</svg>