<?xml version="1.0" encoding="UTF-8" standalone="no"?>
<svg width="21px" height="21px" viewBox="0 0 21 21" version="1.1" xmlns="http://www.w3.org/2000/svg" xmlns:xlink="http://www.w3.org/1999/xlink">
    <!-- Generator: Sketch 39.1 (31720) - http://www.bohemiancoding.com/sketch -->
    <title>Rectangle 18 + magnifying glass</title>
    <desc>Created with Sketch.</desc>
    <defs></defs>
    <g id="Page-1" stroke="none" stroke-width="1" fill="none" fill-rule="evenodd">
        <g id="Guideline" transform="translate(-872.000000, -378.000000)" fill="#7D94CC">
            <g id="Rectangle-18-+-magnifying-glass" transform="translate(872.000000, 378.000000)">
                <g id="magnifying-glass">
                    <path d="M20.5284673,17.7669046 L15.5056717,12.7436268 C16.2632779,11.5007677 16.6992337,10.0385804 16.6992337,8.47669858 C16.6992337,3.9346133 12.7636693,3.59794956e-07 8.22202001,3.59794956e-07 C3.68037074,-0.00132890133 0,3.68072443 0,8.22280971 C0,12.7635657 3.93556438,16.6995079 8.47588451,16.6995079 C9.98710933,16.6995079 11.3999783,16.2887662 12.6161355,15.5776115 L17.6655137,20.6301331 C18.1599514,21.123289 18.9614189,21.123289 19.4545275,20.6301331 L20.7079004,19.3766398 C21.2010089,18.883484 21.0215759,18.2600605 20.5284673,17.7669046 L20.5284673,17.7669046 Z M2.53067024,8.22280971 C2.53067024,5.07777787 5.07861921,2.52958429 8.22202001,2.52958429 C11.3667499,2.52958429 14.1685634,5.33033749 14.1685634,8.47669858 C14.1685634,11.6204012 11.6192853,14.169924 8.47588451,14.169924 C5.33115458,14.1685947 2.53067024,11.3665123 2.53067024,8.22280971 L2.53067024,8.22280971 Z" id="Shape"></path>
                </g>
            </g>
        </g>
    </g>
</svg>