<?xml version="1.0" encoding="UTF-8" standalone="no"?>
<svg width="22px" height="22px" viewBox="0 0 22 22" version="1.1" xmlns="http://www.w3.org/2000/svg" xmlns:xlink="http://www.w3.org/1999/xlink">
    <!-- Generator: Sketch 39.1 (31720) - http://www.bohemiancoding.com/sketch -->
    <title>new message</title>
    <desc>Created with Sketch.</desc>
    <defs></defs>
    <g id="Page-1" stroke="none" stroke-width="1" fill="none" fill-rule="evenodd">
        <g id="Guideline" transform="translate(-953.000000, -378.000000)" fill="#7D94CC">
            <g id="new-message" transform="translate(953.000000, 378.000000)">
                <path d="M20.9957226,1.00458014 C19.648495,-0.342628007 18.4504161,0.0546883696 18.4504161,0.0546883696 L7.88898323,10.6074113 L6.11264778,15.8874404 L11.3903079,14.109908 L21.9456281,3.54984997 C21.9456281,3.54984997 22.3417276,2.35178828 20.9957226,1.00458014 L20.9957226,1.00458014 Z M11.7423964,12.9595243 L11.166585,13.5341049 L9.36579893,14.1453609 C9.23865586,13.851958 9.07972702,13.5622227 8.75697921,13.240702 C8.43423141,12.9179589 8.14571443,12.7590323 7.85230734,12.6318911 L8.46357212,10.831131 L9.03938354,10.2565504 C9.03938354,10.2565504 9.98806648,10.1477469 10.9184115,11.0793009 C11.849979,12.0096325 11.7423964,12.9595243 11.7423964,12.9595243 L11.7423964,12.9595243 Z M18.3379433,19.5549761 L2.44505911,19.5549761 L2.44505911,3.66232107 L8.55770689,3.66232107 L11.002766,1.21729721 L2.44505911,1.21729721 C1.1002766,1.21729721 0,2.31755795 0,3.66232107 L0,19.5549761 C0,20.8997393 1.1002766,22 2.44505911,22 L18.3379433,22 C19.6827259,22 20.7830025,20.8997393 20.7830025,19.5549761 L20.7830025,10.9973926 L18.3379433,13.4424165 L18.3379433,19.5549761 L18.3379433,19.5549761 Z" id="Shape"></path>
            </g>
        </g>
    </g>
</svg>