<?xml version="1.0" encoding="UTF-8" standalone="no"?>
<svg width="50px" height="50px" viewBox="0 0 50 50" version="1.1" xmlns="http://www.w3.org/2000/svg" xmlns:xlink="http://www.w3.org/1999/xlink">
    <!-- Generator: Sketch 39.1 (31720) - http://www.bohemiancoding.com/sketch -->
    <title>odnokl</title>
    <desc>Created with Sketch.</desc>
    <defs></defs>
    <g id="Page-1" stroke="none" stroke-width="1" fill="none" fill-rule="evenodd">
        <g id="Guideline" transform="translate(-969.000000, -287.000000)">
            <g id="social" transform="translate(829.000000, 287.000000)">
                <g id="odnokl" transform="translate(140.000000, 0.000000)">
                    <g id="1458841280_18">
                        <path d="M45.8333333,0 L4.16666667,0 C1.875,0 0,1.875 0,4.16666667 L0,45.8333333 C0,48.125 1.875,50 4.16666667,50 L45.8333333,50 C48.125,50 50,48.125 50,45.8333333 L50,4.16666667 C50,1.875 48.125,0 45.8333333,0 L45.8333333,0 Z" id="Shape" fill="#F2720C"></path>
                        <g id="OK_1_" transform="translate(15.625000, 9.375000)" fill="#FFFFFF">
                            <path d="M16.6666667,15.625 C15.625,15.625 13.5416667,17.7083333 9.375,17.7083333 C5.20833333,17.7083333 3.125,15.625 2.08333333,15.625 C0.9375,15.625 0,16.5625 0,17.7083333 C0,18.75 0.625,19.2708333 1.04166667,19.4791667 C2.29166667,20.2083333 6.25,21.875 6.25,21.875 L1.77083333,27.5 C1.77083333,27.5 0.9375,28.4375 0.9375,29.1666667 C0.9375,30.3125 1.875,31.25 3.02083333,31.25 C4.0625,31.25 4.58333333,30.5208333 4.58333333,30.5208333 L9.375,25 L14.0625,30.5208333 C14.0625,30.5208333 14.5833333,31.25 15.625,31.25 C16.7708333,31.25 17.7083333,30.3125 17.7083333,29.1666667 C17.7083333,28.5416667 16.875,27.5 16.875,27.5 L12.5,21.875 C12.5,21.875 16.4583333,20.2083333 17.7083333,19.4791667 C18.125,19.1666667 18.75,18.75 18.75,17.7083333 C18.75,16.5625 17.8125,15.625 16.6666667,15.625 L16.6666667,15.625 Z" id="K_1_"></path>
                            <path d="M9.375,0 C5.3125,0 2.08333333,3.22916667 2.08333333,7.29166667 C2.08333333,11.3541667 5.3125,14.5833333 9.375,14.5833333 C13.4375,14.5833333 16.6666667,11.3541667 16.6666667,7.29166667 C16.6666667,3.22916667 13.4375,0 9.375,0 L9.375,0 Z M9.375,10.9375 C7.39583333,10.9375 5.72916667,9.27083333 5.72916667,7.29166667 C5.72916667,5.3125 7.39583333,3.64583333 9.375,3.64583333 C11.3541667,3.64583333 13.0208333,5.3125 13.0208333,7.29166667 C13.0208333,9.27083333 11.3541667,10.9375 9.375,10.9375 L9.375,10.9375 Z" id="O_1_"></path>
                        </g>
                    </g>
                </g>
            </g>
        </g>
    </g>
</svg>