<?xml version="1.0" encoding="UTF-8" standalone="no"?>
<svg width="17px" height="18px" viewBox="0 0 17 18" version="1.1" xmlns="http://www.w3.org/2000/svg" xmlns:xlink="http://www.w3.org/1999/xlink">
    <!-- Generator: Sketch 39.1 (31720) - http://www.bohemiancoding.com/sketch -->
    <title>paper clip</title>
    <desc>Created with Sketch.</desc>
    <defs></defs>
    <g id="Page-1" stroke="none" stroke-width="1" fill="none" fill-rule="evenodd">
        <g id="Guideline" transform="translate(-1215.000000, -379.000000)" fill="#7D94CC">
            <g id="paper-clip" transform="translate(1215.000000, 379.000000)">
                <g id="Layer_1">
                    <path d="M3.4525814,17.4687033 C2.76546512,17.1898022 2.14931395,16.7805495 1.62112791,16.2522198 C1.09294186,15.7238901 0.683953488,15.1071429 0.405430233,14.4195824 C0.136395349,13.755956 0,13.0549451 0,12.3359341 C0,11.6169231 0.136395349,10.9157143 0.405430233,10.2520879 C0.683953488,9.56452747 1.09313953,8.94797802 1.62112791,8.41945055 L8.9157093,1.15516484 C9.29168605,0.779142857 9.73052326,0.487582418 10.2199651,0.288989011 C10.6922093,0.0973186813 11.1909419,0 11.7025233,0 C12.213907,0 12.7126395,0.0973186813 13.1850814,0.288989011 C13.6745233,0.487582418 14.1131628,0.779142857 14.4893372,1.15516484 C14.865314,1.53138462 15.1564884,1.97050549 15.3551512,2.46026374 C15.5466977,2.93301099 15.6437558,3.43206593 15.6437558,3.94397802 C15.6437558,4.45589011 15.5466977,4.95494505 15.3551512,5.42769231 C15.1564884,5.91745055 14.865314,6.35637363 14.4893372,6.73279121 L7.21215116,14.0142857 C6.98581395,14.2407692 6.7219186,14.416022 6.42698837,14.5358901 C6.14273256,14.6512088 5.84246512,14.7097582 5.53468605,14.7097582 C5.22690698,14.7097582 4.92683721,14.6512088 4.64238372,14.5358901 C4.34765116,14.4162198 4.08355814,14.2407692 3.85722093,14.0142857 C3.63088372,13.788 3.45574419,13.5237363 3.33615116,13.2288132 C3.22130233,12.9441758 3.1627907,12.6439121 3.1627907,12.3359341 C3.1627907,12.027956 3.22130233,11.7274945 3.33654651,11.4430549 C3.45594186,11.1481319 3.63127907,10.8836703 3.85761628,10.6571868 L10.5668837,3.94378022 C10.8756512,3.63481319 11.3763605,3.63481319 11.6851279,3.94378022 C11.9938953,4.25274725 11.9938953,4.75378022 11.6851279,5.06274725 L4.97586047,11.7761538 C4.8264186,11.9258901 4.74418605,12.1246813 4.74418605,12.3359341 C4.74418605,12.5471868 4.8264186,12.7457802 4.97586047,12.8953187 C5.12510465,13.0448571 5.32376744,13.1271429 5.53488372,13.1271429 C5.746,13.1271429 5.94466279,13.0448571 6.09390698,12.8953187 L13.371093,5.61362637 C13.8168488,5.16758242 14.0623605,4.57457143 14.0623605,3.94397802 C14.0623605,3.31338462 13.8168488,2.72017582 13.371093,2.27432967 C12.9255349,1.82808791 12.332907,1.58241758 11.7025233,1.58241758 C11.0721395,1.58241758 10.479314,1.82808791 10.0339535,2.27413187 L2.73877907,9.53901099 C2.3614186,9.91681319 2.06925581,10.3569231 1.87059302,10.8468791 C1.67884884,11.3206154 1.58139535,11.8218462 1.58139535,12.3359341 C1.58139535,12.850022 1.67884884,13.3510549 1.8707907,13.8247912 C2.06965116,14.3151429 2.36161628,14.7552527 2.73956977,15.1330549 C3.11712791,15.5108571 3.55715116,15.8034066 4.0467907,16.0021978 C4.5204186,16.1944615 5.02112791,16.291978 5.53488372,16.291978 C6.04863953,16.291978 6.54954651,16.1944615 7.02297674,16.0021978 C7.51301163,15.8034066 7.95263953,15.5110549 8.33039535,15.1330549 L15.5988837,7.85986813 C15.9076512,7.5509011 16.4083605,7.5509011 16.7169302,7.85986813 C17.0256977,8.16883516 17.0256977,8.66986813 16.7169302,8.97883516 L9.44844186,16.252022 C8.92045349,16.7803516 8.30430233,17.1896044 7.61698837,17.4685055 C6.95418605,17.7379121 6.25343023,17.8743956 5.53488372,17.8743956 C4.81633721,17.8743956 4.11577907,17.7379121 3.4525814,17.4687033 Z" id="Shape"></path>
                </g>
            </g>
        </g>
    </g>
</svg>