<?xml version="1.0" encoding="UTF-8" standalone="no"?>
<svg width="24px" height="22px" viewBox="0 0 24 22" version="1.1" xmlns="http://www.w3.org/2000/svg" xmlns:xlink="http://www.w3.org/1999/xlink">
    <!-- Generator: Sketch 39.1 (31720) - http://www.bohemiancoding.com/sketch -->
    <title>print</title>
    <desc>Created with Sketch.</desc>
    <defs></defs>
    <g id="Page-1" stroke="none" stroke-width="1" fill="none" fill-rule="evenodd">
        <g id="Guideline" transform="translate(-995.000000, -377.000000)" fill="#7D94CC">
            <g id="print" transform="translate(995.000000, 377.000000)">
                <path d="M1.8012,6.11111111 L22.2012,6.11111111 C22.8852,6.11111111 22.7736,5.368 22.4328,5.247 C22.0908,5.126 18.3012,3.66666667 17.64,3.66666667 L16.8,3.66666667 L16.8,0 L7.2,0 L7.2,3.66666667 L6.3612,3.66666667 C5.7012,3.66666667 1.9104,5.126 1.5696,5.247 C1.2288,5.368 1.1172,6.11111111 1.8012,6.11111111 L1.8012,6.11111111 Z M22.8,7.33333333 L1.2,7.33333333 C0.54,7.33333333 0,7.88333333 0,8.55555556 L0,14.6666667 C0,15.3401111 0.54,15.8888889 1.2,15.8888889 L3.9396,15.8888889 L2.8812,22 L21.12,22 L20.0604,15.8888889 L22.8,15.8888889 C23.4612,15.8888889 24,15.3401111 24,14.6666667 L24,8.55555556 C24,7.88333333 23.4612,7.33333333 22.8,7.33333333 L22.8,7.33333333 Z M5.5236,19.5555556 L6.9612,10.9963333 L17.04,10.9963333 L18.4788,19.5555556 L5.5236,19.5555556 L5.5236,19.5555556 Z" id="Shape"></path>
            </g>
        </g>
    </g>
</svg>