<?xml version="1.0" encoding="UTF-8" standalone="no"?>
<svg width="31px" height="33px" viewBox="0 0 31 33" version="1.1" xmlns="http://www.w3.org/2000/svg" xmlns:xlink="http://www.w3.org/1999/xlink">
    <!-- Generator: Sketch 39.1 (31720) - http://www.bohemiancoding.com/sketch -->
    <title>thumbs up</title>
    <desc>Created with Sketch.</desc>
    <defs></defs>
    <g id="Page-1" stroke="none" stroke-width="1" fill="none" fill-rule="evenodd">
        <g id="Guideline" transform="translate(-920.000000, -437.000000)" fill="#272E40">
            <g id="thumbs-up" transform="translate(920.000000, 437.000000)">
                <path d="M22.5623529,11.6639992 C22.3080882,11.013176 29.3280882,5.0017697 25.235,0.130678956 C24.2772059,-1.0078033 21.0272059,5.58476062 16.4122059,8.56938077 C13.8657353,10.2156884 7.94117647,13.7209671 7.94117647,15.6587703 L7.94117647,28.2022414 C7.94117647,30.5323718 17.3355882,33 24.4741176,33 C27.0913235,33 30.8823529,17.2775784 30.8823529,14.7806173 C30.8823529,12.2726564 22.8127941,12.3166557 22.5623529,11.6639992 L22.5623529,11.6639992 Z M5.8747842,12.1578947 C4.5862482,12.1578947 0,12.8847391 0,17.8327324 L0,26.6420866 C0,31.5864456 4.5862482,32.1315789 5.8747842,32.1315789 C7.16136194,32.1315789 3.9165228,31.0921915 3.9165228,28.0249081 L3.9165228,16.4444596 C3.9165228,13.2318073 7.16136194,12.1578947 5.8747842,12.1578947 L5.8747842,12.1578947 Z" id="Shape"></path>
            </g>
        </g>
    </g>
</svg>