<?xml version="1.0" encoding="UTF-8" standalone="no"?>
<svg width="20px" height="22px" viewBox="0 0 20 22" version="1.1" xmlns="http://www.w3.org/2000/svg" xmlns:xlink="http://www.w3.org/1999/xlink">
    <!-- Generator: Sketch 39.1 (31720) - http://www.bohemiancoding.com/sketch -->
    <title>user</title>
    <desc>Created with Sketch.</desc>
    <defs></defs>
    <g id="Page-1" stroke="none" stroke-width="1" fill="none" fill-rule="evenodd">
        <g id="Guideline" transform="translate(-913.000000, -377.000000)" fill="#7D94CC">
            <g id="user" transform="translate(913.000000, 377.000000)">
                <path d="M7.47222222,2.15178674 C6.34333333,2.99222862 6.04,4.32292825 6.09555556,5.03107835 C6.16666667,5.89708922 6.34222222,7.02434856 6.34222222,7.02434856 C6.34222222,7.02434856 5.99444444,7.21333681 5.99444444,7.9737366 C6.11555556,9.88251795 6.75333333,9.05875151 6.88444444,9.8958583 C7.2,11.9124741 7.92111111,11.5533964 7.92111111,12.6539751 C7.92111111,14.4871611 7.16555556,15.3442784 4.80666667,16.3603682 C2.44,17.3809048 0,18.6649132 0,20.8883044 L0,22 L20,22 L20,20.8883044 C20,18.6649132 17.5588889,17.3809048 15.1911111,16.3614799 C12.8322222,15.3453901 12.0788889,14.4893845 12.0788889,12.6550868 C12.0788889,11.5545081 12.7977778,11.9135858 13.1144444,9.89696999 C13.2466667,9.05986321 13.8833333,9.88362965 14.0066667,7.9748483 C14.0066667,7.21444851 13.6577778,7.02546026 13.6577778,7.02546026 C13.6577778,7.02546026 13.8333333,5.89820092 13.9033333,5.03219004 C13.9755556,4.12393474 13.4611111,2.18513761 11.3477778,1.59038046 C10.9777778,1.21240396 10.7277778,0.610976639 11.8655556,0.00732592804 C9.37666667,-0.10940211 8.79777778,1.19350513 7.47222222,2.15178674 L7.47222222,2.15178674 Z" id="Shape"></path>
            </g>
        </g>
    </g>
</svg>