<?xml version="1.0" encoding="UTF-8" standalone="no"?>
<svg width="30px" height="33px" viewBox="0 0 30 33" version="1.1" xmlns="http://www.w3.org/2000/svg" xmlns:xlink="http://www.w3.org/1999/xlink">
    <!-- Generator: Sketch 39.1 (31720) - http://www.bohemiancoding.com/sketch -->
    <title>stopwatch</title>
    <desc>Created with Sketch.</desc>
    <defs></defs>
    <g id="Page-1" stroke="none" stroke-width="1" fill="none" fill-rule="evenodd">
        <g id="Guideline" transform="translate(-870.000000, -439.000000)" fill="#272E40">
            <g id="stopwatch" transform="translate(870.500000, 439.000000)">
                <path d="M9.16512808,11.6530548 C8.41712512,12.1281608 11.1681696,18.9817811 11.8391969,20.0978483 C12.4248815,21.0808858 13.6682064,21.3797707 14.6136687,20.7785456 C15.5641512,20.1704099 15.8603403,18.8884875 15.2746557,17.910633 C14.6103219,16.7911104 9.91145767,11.1762211 9.16512808,11.6530548 L9.16512808,11.6530548 Z M8.6045442,4.14983509 C10.1574452,3.59180148 11.8207896,3.28255065 13.5560896,3.28255065 C15.2913895,3.28255065 16.9547339,3.59180148 18.5076349,4.14983509 C19.0581785,4.34678813 19.7877743,3.95115439 19.464811,3.0942359 C19.2288638,2.47227894 19.0012834,1.86414324 18.9092473,1.61708811 C18.6900339,1.03141197 17.9052164,0.547667661 17.563846,0.468195382 C16.271993,0.167582849 14.9332852,0 13.5560896,0 C12.178894,0 10.8401862,0.167582849 9.5466598,0.468195382 C9.20528932,0.547667661 8.42214527,1.03141197 8.20293187,1.61708811 C8.11089571,1.86414324 7.88164201,2.47227894 7.64736815,3.0942359 C7.3244049,3.95115439 8.05400063,4.34851578 8.6045442,4.14983509 L8.6045442,4.14983509 Z M28.7805437,5.50431915 C28.4592538,5.10695775 28.1178834,4.71823465 27.7547589,4.34333281 C27.3933078,3.96843097 27.0167962,3.61771635 26.6335911,3.28427831 C26.3775633,3.0614104 25.6245401,2.88000628 25.1476255,3.37238888 C24.6723842,3.86477148 22.3898875,6.217842 22.3898875,6.217842 C23.0625881,6.71540757 23.7168816,7.26307523 24.3226468,7.88675986 C24.9284121,8.51044448 25.4555283,9.18595885 25.9391365,9.88220512 C25.9391365,9.88220512 28.2199598,7.5291346 28.6952011,7.036752 C29.1737891,6.54264175 28.9980837,5.7669232 28.7805437,5.50431915 L28.7805437,5.50431915 Z M13.5560896,5.01020889 C6.06769298,5.01020889 2.68229883e-13,11.2746977 2.68229883e-13,19.0042406 C2.68229883e-13,26.7355112 6.06769298,33 13.5560896,33 C21.0411394,33 27.1105058,26.7355112 27.1105058,19.0042406 C27.1105058,11.2764253 21.0411394,5.01020889 13.5560896,5.01020889 L13.5560896,5.01020889 Z M13.5560896,29.5446835 C7.92012986,29.5446835 3.34844281,24.8264489 3.34844281,19.0059683 C3.34844281,13.1854877 7.91845647,8.46725302 13.5560896,8.46725302 C19.1937227,8.46725302 23.7654097,13.1854877 23.7654097,19.0059683 C23.7654097,24.8247212 19.1937227,29.5446835 13.5560896,29.5446835 L13.5560896,29.5446835 Z" id="Shape"></path>
            </g>
        </g>
    </g>
</svg>