<?xml version="1.0" encoding="UTF-8" standalone="no"?>
<svg width="17px" height="11px" viewBox="0 0 17 11" version="1.1" xmlns="http://www.w3.org/2000/svg" xmlns:xlink="http://www.w3.org/1999/xlink">
    <!-- Generator: Sketch 3.7 (28169) - http://www.bohemiancoding.com/sketch -->
    <title>align justify</title>
    <desc>Created with Sketch.</desc>
    <defs></defs>
    <g id="Page-1" stroke="none" stroke-width="1" fill="none" fill-rule="evenodd">
        <g id="-proof-medical-podbor-copy-4" transform="translate(-1469.000000, -394.000000)" fill="#393939">
            <g id="Katalog" transform="translate(401.000000, 295.000000)">
                <g id="Sortirovka" transform="translate(300.000000, 80.000000)">
                    <g id="Group-19" transform="translate(759.000000, 7.000000)">
                        <g id="align-justify" transform="translate(9.000000, 12.000000)">
                            <g id="Page-1">
                                <g>
                                    <g id="Icon-Set">
                                        <path d="M16.3928571,4.88888889 L0.607142857,4.88888889 C0.271392857,4.88888889 0,5.16266667 0,5.5 C0,5.83794444 0.271392857,6.11111111 0.607142857,6.11111111 L16.3928571,6.11111111 C16.7286071,6.11111111 17,5.83794444 17,5.5 C17,5.16266667 16.7286071,4.88888889 16.3928571,4.88888889 L16.3928571,4.88888889 L16.3928571,4.88888889 Z M16.3928571,9.77777778 L0.607142857,9.77777778 C0.271392857,9.77777778 0,10.0515556 0,10.3888889 C0,10.7268333 0.271392857,11 0.607142857,11 L16.3928571,11 C16.7286071,11 17,10.7268333 17,10.3888889 C17,10.0515556 16.7286071,9.77777778 16.3928571,9.77777778 L16.3928571,9.77777778 L16.3928571,9.77777778 Z M0.607142857,1.22222222 L16.3928571,1.22222222 C16.7286071,1.22222222 17,0.949055556 17,0.611111111 C17,0.273777778 16.7286071,0 16.3928571,0 L0.607142857,0 C0.271392857,0 0,0.273777778 0,0.611111111 C0,0.949055556 0.271392857,1.22222222 0.607142857,1.22222222 L0.607142857,1.22222222 L0.607142857,1.22222222 Z" id="align-justify"></path>
                                    </g>
                                </g>
                            </g>
                        </g>
                    </g>
                </g>
            </g>
        </g>
    </g>
</svg>