<svg xmlns="http://www.w3.org/2000/svg" width="612" height="612" viewBox="0 0 612 612"><path d="M561 187h-86.615c-.629-1.734-1.274-3.451-2.227-4.998l-85-136C382.636 38.794 374.629 34 365.5 34 351.424 34 340 45.407 340 59.5c0 4.964 1.411 9.571 3.859 13.498L415.106 187H196.894l71.247-114.002A25.34 25.34 0 0 0 272 59.5c0-14.093-11.424-25.5-25.5-25.5-9.129 0-17.136 4.794-21.641 12.002l-85 136c-.969 1.547-1.615 3.264-2.244 4.998H51c-28.169 0-51 22.831-51 51v34c0 24.157 16.847 44.268 39.389 49.555l64.668 219.878C110.279 562.564 129.846 578 153 578h306c23.154 0 42.721-15.436 48.943-36.567l64.668-219.878C595.153 316.285 612 296.157 612 272v-34c0-28.169-22.831-51-51-51zM459 527l-306.017.034L92.99 323h426.02L459 527zm102-255H51v-34h510v34z"></path></svg>