<?xml version="1.0" encoding="UTF-8" standalone="no"?>
<svg width="19px" height="13px" viewBox="0 0 19 13" version="1.1" xmlns="http://www.w3.org/2000/svg" xmlns:xlink="http://www.w3.org/1999/xlink">
    <!-- Generator: Sketch 3.7 (28169) - http://www.bohemiancoding.com/sketch -->
    <title>bullet list</title>
    <desc>Created with Sketch.</desc>
    <defs></defs>
    <g id="Page-1" stroke="none" stroke-width="1" fill="none" fill-rule="evenodd">
        <g id="-proof-medical-podbor-copy-4" transform="translate(-1422.000000, -393.000000)" fill="#393939">
            <g id="Katalog" transform="translate(401.000000, 295.000000)">
                <g id="Sortirovka" transform="translate(300.000000, 80.000000)">
                    <g id="Group-18" transform="translate(713.000000, 7.000000)">
                        <g id="bullet-list" transform="translate(8.000000, 11.000000)">
                            <g id="Page-1">
                                <g>
                                    <g id="Icon-Set">
                                        <path d="M18.3214286,11.05 L6.10714286,11.05 C5.73189286,11.05 5.42857143,11.3412 5.42857143,11.7 C5.42857143,12.05945 5.73189286,12.35 6.10714286,12.35 L18.3214286,12.35 C18.6966786,12.35 19,12.05945 19,11.7 C19,11.3412 18.6966786,11.05 18.3214286,11.05 L18.3214286,11.05 L18.3214286,11.05 Z M1.35714286,0 C0.608,0 0,0.5824 0,1.3 C0,2.0176 0.608,2.6 1.35714286,2.6 C2.10628571,2.6 2.71428571,2.0176 2.71428571,1.3 C2.71428571,0.5824 2.10628571,0 1.35714286,0 L1.35714286,0 L1.35714286,0 Z M6.10714286,1.95 L18.3214286,1.95 C18.6966786,1.95 19,1.65945 19,1.3 C19,0.94055 18.6966786,0.65 18.3214286,0.65 L6.10714286,0.65 C5.73189286,0.65 5.42857143,0.94055 5.42857143,1.3 C5.42857143,1.65945 5.73189286,1.95 6.10714286,1.95 L6.10714286,1.95 L6.10714286,1.95 Z M18.3214286,5.85 L6.10714286,5.85 C5.73189286,5.85 5.42857143,6.1412 5.42857143,6.5 C5.42857143,6.85945 5.73189286,7.15 6.10714286,7.15 L18.3214286,7.15 C18.6966786,7.15 19,6.85945 19,6.5 C19,6.1412 18.6966786,5.85 18.3214286,5.85 L18.3214286,5.85 L18.3214286,5.85 Z M1.35714286,5.2 C0.608,5.2 0,5.7824 0,6.5 C0,7.2176 0.608,7.8 1.35714286,7.8 C2.10628571,7.8 2.71428571,7.2176 2.71428571,6.5 C2.71428571,5.7824 2.10628571,5.2 1.35714286,5.2 L1.35714286,5.2 L1.35714286,5.2 Z M1.35714286,10.4 C0.608,10.4 0,10.9824 0,11.7 C0,12.4176 0.608,13 1.35714286,13 C2.10628571,13 2.71428571,12.4176 2.71428571,11.7 C2.71428571,10.9824 2.10628571,10.4 1.35714286,10.4 L1.35714286,10.4 L1.35714286,10.4 Z" id="bullet-list"></path>
                                    </g>
                                </g>
                            </g>
                        </g>
                    </g>
                </g>
            </g>
        </g>
    </g>
</svg>