<?xml version="1.0" encoding="UTF-8" standalone="no"?>
<svg width="18px" height="18px" viewBox="0 0 18 18" version="1.1" xmlns="http://www.w3.org/2000/svg" xmlns:xlink="http://www.w3.org/1999/xlink">
    <!-- Generator: Sketch 3.7 (28169) - http://www.bohemiancoding.com/sketch -->
    <title>cross</title>
    <desc>Created with Sketch.</desc>
    <defs></defs>
    <g id="Page-1" stroke="none" stroke-width="1" fill="none" fill-rule="evenodd">
        <g id="proofmedical-podbor-popup" transform="translate(-1471.000000, -485.000000)" fill="#575465">
            <g id="cross" transform="translate(1471.000000, 485.000000)">
                <g id="Layer_1">
                    <path d="M17.670375,1.920375 C18.1096875,1.4810625 18.1096875,0.76865625 17.670375,0.329625 C17.2310625,-0.1096875 16.5189375,-0.1096875 16.079625,0.329625 L9,7.40896875 L1.92065625,0.329625 C1.48134375,-0.1096875 0.7689375,-0.1096875 0.329625,0.329625 C-0.1096875,0.7689375 -0.1096875,1.48134375 0.329625,1.920375 L7.40925,9 L0.329625,16.079625 C-0.1096875,16.5189375 -0.1096875,17.2313437 0.329625,17.670375 C0.54928125,17.8900312 0.83728125,18 1.125,18 C1.41271875,18 1.701,17.8900312 1.92065625,17.670375 L9,10.5910312 L16.079625,17.670375 C16.2992813,17.8900312 16.5872813,18 16.875,18 C17.1627188,18 17.451,17.8900312 17.670375,17.670375 C18.1096875,17.2310625 18.1096875,16.5186562 17.670375,16.079625 L10.5910313,9 L17.670375,1.920375 Z" id="Shape"></path>
                </g>
            </g>
        </g>
    </g>
</svg>