<?xml version="1.0" encoding="iso-8859-1"?>
<!-- Generator: Adobe Illustrator 18.1.1, SVG Export Plug-In . SVG Version: 6.00 Build 0)  -->
<svg xmlns="http://www.w3.org/2000/svg" xmlns:xlink="http://www.w3.org/1999/xlink" version="1.1" id="Capa_1" x="0px" y="0px" viewBox="0 0 599.964 599.964" style="enable-background:new 0 0 599.964 599.964;" xml:space="preserve" width="512px" height="512px">
<g>
	<g>
		<path d="M310.182,90.78V10.2c0-5.712-4.488-10.2-10.2-10.2s-10.2,4.488-10.2,10.2v80.58c-34.476,4.896-61.2,34.68-61.2,70.584    s26.724,65.688,61.2,70.584v357.816c0,5.712,4.488,10.2,10.2,10.2s10.2-4.488,10.2-10.2V231.948    c34.476-4.896,61.2-34.68,61.2-70.584S344.658,95.676,310.182,90.78z M299.982,212.364c-28.152,0-51-22.848-51-51s22.848-51,51-51    s51,22.848,51,51S328.134,212.364,299.982,212.364z" fill="#667590"/>
		<path d="M299.982,125.664c-19.584,0-35.7,16.116-35.7,35.7c0,2.856,2.244,5.1,5.1,5.1s5.1-2.244,5.1-5.1    c0-14.076,11.424-25.5,25.5-25.5c2.856,0,5.1-2.244,5.1-5.1C305.082,127.908,302.838,125.664,299.982,125.664z" fill="#667590"/>
		<path d="M575.382,446.964c0-35.904-26.724-65.688-61.2-70.584V18.564c0-5.712-4.488-10.2-10.2-10.2s-10.2,4.488-10.2,10.2V376.38    c-34.476,4.896-61.2,34.68-61.2,70.584s26.724,65.688,61.2,70.584v72.216c0,5.712,4.488,10.2,10.2,10.2s10.2-4.488,10.2-10.2    v-72.216C548.658,512.652,575.382,482.868,575.382,446.964z M503.982,497.964c-28.152,0-51-22.848-51-51s22.848-51,51-51    c28.152,0,51,22.848,51,51S532.134,497.964,503.982,497.964z" fill="#667590"/>
		<path d="M503.982,411.264c-19.584,0-35.7,16.116-35.7,35.7c0,2.856,2.244,5.1,5.1,5.1s5.1-2.244,5.1-5.1    c0-14.076,11.424-25.5,25.5-25.5c2.856,0,5.1-2.244,5.1-5.1S506.838,411.264,503.982,411.264z" fill="#667590"/>
		<path d="M106.182,376.38V18.564c0-5.712-4.488-10.2-10.2-10.2c-5.712,0-10.2,4.488-10.2,10.2V376.38    c-34.476,4.896-61.2,34.68-61.2,70.584s26.724,65.688,61.2,70.584v72.216c0,5.712,4.488,10.2,10.2,10.2    c5.712,0,10.2-4.488,10.2-10.2v-72.216c34.476-4.896,61.2-34.68,61.2-70.584S140.658,381.276,106.182,376.38z M95.982,497.964    c-28.152,0-51-22.848-51-51s22.848-51,51-51s51,22.848,51,51S124.134,497.964,95.982,497.964z" fill="#667590"/>
		<path d="M95.982,411.264c-19.584,0-35.7,16.116-35.7,35.7c0,2.856,2.244,5.1,5.1,5.1c2.856,0,5.1-2.244,5.1-5.1    c0-14.076,11.424-25.5,25.5-25.5c2.856,0,5.1-2.244,5.1-5.1S98.838,411.264,95.982,411.264z" fill="#667590"/>
	</g>
</g>
<g>
</g>
<g>
</g>
<g>
</g>
<g>
</g>
<g>
</g>
<g>
</g>
<g>
</g>
<g>
</g>
<g>
</g>
<g>
</g>
<g>
</g>
<g>
</g>
<g>
</g>
<g>
</g>
<g>
</g>
</svg>
