<?xml version="1.0" encoding="UTF-8" standalone="no"?>
<svg width="245px" height="54px" viewBox="0 0 245 54" version="1.1" xmlns="http://www.w3.org/2000/svg" xmlns:xlink="http://www.w3.org/1999/xlink">
    <!-- Generator: Sketch 3.6.1 (26313) - http://www.bohemiancoding.com/sketch -->
    <title>Rectangle 161 + Rectangle 12 + ВСЕ ОБОРУДОВАНИЕ + chevron right</title>
    <desc>Created with Sketch.</desc>
    <defs></defs>
    <g id="Page-1" stroke="none" stroke-width="1" fill="none" fill-rule="evenodd">
        <g id="11-proof-medical-home_2" transform="translate(-716.000000, -1845.000000)">
            <g id="Oborudovanie" transform="translate(370.000000, 1712.000000)">
                <g id="Rectangle-152-+-Rectangle-160-+-Rectangle-161-+-Rectangle-12-+-ВСЕ-ОБОРУДОВАНИЕ-+-chevron-right-+-Стоматология" transform="translate(22.000000, 87.000000)">
                    <g id="Rectangle-161-+-Rectangle-12-+-ВСЕ-ОБОРУДОВАНИЕ-+-chevron-right" transform="translate(324.000000, 46.000000)">
                        <path d="M234,40 L245,40 L239.5,47 L234,54 L234,40 Z" id="Rectangle-161" fill="#009C6F"></path>
                        <g id="Rectangle-12-+-ВСЕ-ОБОРУДОВАНИЕ-+-chevron-right">
                            <g id="Rectangle-12" fill="#00EBA9">
                                <rect x="0" y="0" width="245" height="40" rx="40"></rect>
                            </g>
                            <g id="ВСЕ-ОБОРУДОВАНИЕ-+-chevron-right" transform="translate(39.000000, 12.000000)" fill="#FFFFFF">
                                <text id="ВСЕ-ОБОРУДОВАНИЕ" font-family=".AppleSystemUIFont" font-size="14" font-weight="normal" letter-spacing="0.200000003">
                                    <tspan x="0" y="14">ВСЕ ОБОРУДОВАНИЕ</tspan>
                                </text>
                                <g id="chevron-right" transform="translate(168.000000, 3.000000)">
                                    <path d="M1.73190115,0.478721409 C2.10073831,0.838734709 5.70440084,4.62152151 5.70440084,4.62152151 C5.90117282,4.81476394 6,5.06624382 6,5.3177237 C6,5.56920358 5.90117282,5.82068345 5.70440084,6.01216112 C5.70440084,6.01216112 2.10073831,9.79671269 1.73190115,10.1549612 C1.363064,10.5149745 0.699510076,10.5396813 0.306848511,10.1549612 C-0.0866954385,9.77200589 -0.117578932,9.23639787 0.306848511,8.76608638 L3.61314712,5.3177237 L0.306848511,1.86936102 C-0.117578932,1.39904953 -0.0866954385,0.862559118 0.306848511,0.478721409 C0.699510076,0.094001315 1.363064,0.117825725 1.73190115,0.478721409 L1.73190115,0.478721409 Z" id="Shape"></path>
                                </g>
                            </g>
                        </g>
                    </g>
                </g>
            </g>
        </g>
    </g>
</svg>