<?xml version="1.0" encoding="iso-8859-1"?>
<!-- Generator: Adobe Illustrator 18.1.1, SVG Export Plug-In . SVG Version: 6.00 Build 0)  -->
<svg version="1.1" id="Capa_1" xmlns="http://www.w3.org/2000/svg" xmlns:xlink="http://www.w3.org/1999/xlink" x="0px" y="0px"
	 viewBox="0 0 24.868 24.868" style="enable-background:new 0 0 24.868 24.868;" xml:space="preserve">
<g>
	<path style="fill:#010002;" d="M24.868,2.676L24.868,2.676c-0.001-1.368-1.116-2.505-2.483-2.505h-4.434
		c-0.652,0-1.246,0.254-1.689,0.667c-0.446-0.413-1.037-0.667-1.692-0.667h-4.434c-0.61,0-1.17,0.224-1.603,0.59
		c-0.431-0.367-0.991-0.59-1.602-0.59H2.498C1.129,0.171,0,1.308,0,2.676v4.435C0,7.68,0.194,8.207,0.52,8.627
		C0.194,9.045,0,9.57,0,10.142v4.434c0,0.61,0.223,1.17,0.59,1.603C0.223,16.611,0,17.17,0,17.781v4.434
		c0,1.368,1.129,2.481,2.498,2.481h4.433c0.611,0,1.171-0.224,1.604-0.59c0.433,0.366,0.992,0.59,1.603,0.59h4.434
		c0.652,0,1.246-0.254,1.689-0.667c0.444,0.413,1.038,0.667,1.69,0.667h4.435c1.366,0,2.481-1.113,2.481-2.481v-4.434
		c0-0.611-0.224-1.17-0.591-1.604c0.367-0.433,0.591-0.991,0.591-1.603v-4.432c0-0.571-0.194-1.098-0.521-1.518
		c0.325-0.42,0.521-0.945,0.521-1.516L24.868,2.676L24.868,2.676z M7.686,22.553c-0.129,0.284-0.423,0.482-0.756,0.482H2.497
		c-0.454,0-0.837-0.366-0.837-0.82v-4.434c0-0.333,0.206-0.61,0.491-0.739c0.11,0.017,0.23,0.033,0.346,0.033H6.93
		c0.115,0,0.228-0.019,0.339-0.033c0.182,0.082,0.335,0.225,0.417,0.405c-0.016,0.109-0.017,0.219-0.017,0.334v4.434
		C7.669,22.33,7.67,22.442,7.686,22.553z M7.686,14.915c-0.082,0.182-0.231,0.335-0.413,0.417c-0.112-0.015-0.228-0.015-0.343-0.015
		H2.497c-0.115,0-0.235,0-0.347,0.016c-0.285-0.129-0.49-0.424-0.49-0.757v-4.434c0-0.244,0.114-0.457,0.282-0.608
		C2.119,9.574,2.309,9.6,2.497,9.6H6.93c0.188,0,0.371-0.026,0.547-0.065C7.562,9.61,7.638,9.701,7.686,9.806
		c-0.016,0.11-0.017,0.22-0.017,0.336v4.434C7.669,14.691,7.67,14.804,7.686,14.915z M7.686,7.448
		c-0.048,0.104-0.12,0.19-0.205,0.267C7.304,7.675,7.118,7.646,6.93,7.646H2.497c-0.188,0-0.378,0.028-0.555,0.068
		C1.774,7.564,1.66,7.353,1.66,7.109V2.676c0-0.454,0.383-0.844,0.837-0.844H6.93c0.333,0,0.627,0.209,0.756,0.494
		C7.67,2.438,7.669,2.562,7.669,2.676v4.435C7.669,7.224,7.67,7.338,7.686,7.448z M15.389,22.215c0,0.454-0.363,0.82-0.818,0.82
		h-4.434c-0.332,0-0.61-0.198-0.739-0.482c0.015-0.11,0.031-0.224,0.031-0.338v-4.434c0-0.115-0.017-0.229-0.031-0.338
		c0.082-0.183,0.224-0.319,0.405-0.401c0.111,0.017,0.22,0.033,0.334,0.033h4.434c0.115,0,0.227-0.018,0.337-0.033
		c0.284,0.129,0.481,0.406,0.481,0.739C15.389,17.782,15.389,22.215,15.389,22.215z M15.389,14.575c0,0.333-0.195,0.628-0.48,0.757
		c-0.112-0.015-0.223-0.015-0.34-0.015h-4.434c-0.114,0-0.228,0-0.338,0.015c-0.182-0.082-0.319-0.23-0.402-0.413
		c0.016-0.11,0.032-0.228,0.032-0.343v-4.434c0-0.115-0.017-0.229-0.031-0.34c0.047-0.104,0.113-0.193,0.198-0.269
		c0.176,0.039,0.354,0.065,0.542,0.065h4.434c0.188,0,0.369-0.026,0.546-0.066c0.168,0.151,0.272,0.364,0.272,0.608v4.435H15.389z
		 M15.389,7.11c0,0.243-0.104,0.454-0.272,0.604c-0.177-0.04-0.357-0.068-0.546-0.068h-4.434c-0.188,0-0.37,0.028-0.546,0.067
		c-0.086-0.074-0.148-0.164-0.195-0.27c0.015-0.11,0.031-0.221,0.031-0.334V2.676c0-0.113-0.017-0.237-0.032-0.35
		c0.13-0.285,0.409-0.494,0.741-0.494h4.434c0.455,0,0.818,0.39,0.818,0.844L15.389,7.11L15.389,7.11z M23.205,22.215
		c0,0.454-0.368,0.82-0.821,0.82H17.95c-0.454,0-0.804-0.366-0.804-0.82v-4.434c0-0.333,0.188-0.61,0.475-0.739
		c0.111,0.017,0.215,0.033,0.329,0.033h4.434c0.114,0,0.228-0.019,0.339-0.033c0.284,0.129,0.482,0.406,0.482,0.739
		C23.205,17.781,23.205,22.215,23.205,22.215z M23.205,14.576c0,0.333-0.198,0.627-0.482,0.756
		c-0.111-0.015-0.225-0.015-0.339-0.015H17.95c-0.114,0-0.218,0-0.329,0.016c-0.285-0.129-0.475-0.424-0.475-0.757v-4.434
		c0-0.244,0.098-0.457,0.267-0.608C17.589,9.574,17.764,9.6,17.95,9.6h4.434c0.188,0,0.37-0.026,0.546-0.065
		c0.17,0.15,0.275,0.363,0.275,0.607V14.576z M23.205,7.11c0,0.243-0.105,0.454-0.275,0.604c-0.176-0.039-0.357-0.067-0.546-0.067
		H17.95c-0.188,0-0.361,0.028-0.537,0.068c-0.169-0.15-0.267-0.361-0.267-0.604V2.676c0-0.454,0.35-0.844,0.804-0.844h4.434
		c0.453,0,0.821,0.39,0.821,0.844V7.11z"/>
</g>
<g>
</g>
<g>
</g>
<g>
</g>
<g>
</g>
<g>
</g>
<g>
</g>
<g>
</g>
<g>
</g>
<g>
</g>
<g>
</g>
<g>
</g>
<g>
</g>
<g>
</g>
<g>
</g>
<g>
</g>
</svg>
