<?xml version="1.0" encoding="UTF-8" standalone="no"?>
<svg width="15px" height="15px" viewBox="0 0 15 15" version="1.1" xmlns="http://www.w3.org/2000/svg" xmlns:xlink="http://www.w3.org/1999/xlink">
    <!-- Generator: Sketch 3.7 (28169) - http://www.bohemiancoding.com/sketch -->
    <title>grid.1</title>
    <desc>Created with Sketch.</desc>
    <defs></defs>
    <g id="Page-1" stroke="none" stroke-width="1" fill="none" fill-rule="evenodd">
        <g id="-proof-medical-podbor-copy-4" transform="translate(-1378.000000, -391.000000)" fill="#393939">
            <g id="Katalog" transform="translate(401.000000, 295.000000)">
                <g id="Sortirovka" transform="translate(300.000000, 80.000000)">
                    <g id="Group-17" transform="translate(667.000000, 7.000000)">
                        <g id="grid.1" transform="translate(10.000000, 9.000000)">
                            <g id="grid">
                                <g id="Page-1">
                                    <g id="Icon-Set">
                                        <path d="M13.9285714,4.28571429 C13.9285714,4.87714286 13.4485714,5.35714286 12.8571429,5.35714286 L10.7142857,5.35714286 C10.1228571,5.35714286 9.64285714,4.87714286 9.64285714,4.28571429 L9.64285714,2.14285714 C9.64285714,1.55142857 10.1228571,1.07142857 10.7142857,1.07142857 L12.8571429,1.07142857 C13.4485714,1.07142857 13.9285714,1.55142857 13.9285714,2.14285714 L13.9285714,4.28571429 L13.9285714,4.28571429 L13.9285714,4.28571429 Z M12.8571429,0 L10.7142857,0 C9.53089286,0 8.57142857,0.959464286 8.57142857,2.14285714 L8.57142857,4.28571429 C8.57142857,5.46910714 9.53089286,6.42857143 10.7142857,6.42857143 L12.8571429,6.42857143 C14.0405357,6.42857143 15,5.46910714 15,4.28571429 L15,2.14285714 C15,0.959464286 14.0405357,0 12.8571429,0 L12.8571429,0 L12.8571429,0 Z M13.9285714,12.8571429 C13.9285714,13.4485714 13.4485714,13.9285714 12.8571429,13.9285714 L10.7142857,13.9285714 C10.1228571,13.9285714 9.64285714,13.4485714 9.64285714,12.8571429 L9.64285714,10.7142857 C9.64285714,10.1228571 10.1228571,9.64285714 10.7142857,9.64285714 L12.8571429,9.64285714 C13.4485714,9.64285714 13.9285714,10.1228571 13.9285714,10.7142857 L13.9285714,12.8571429 L13.9285714,12.8571429 L13.9285714,12.8571429 Z M12.8571429,8.57142857 L10.7142857,8.57142857 C9.53089286,8.57142857 8.57142857,9.53089286 8.57142857,10.7142857 L8.57142857,12.8571429 C8.57142857,14.0405357 9.53089286,15 10.7142857,15 L12.8571429,15 C14.0405357,15 15,14.0405357 15,12.8571429 L15,10.7142857 C15,9.53089286 14.0405357,8.57142857 12.8571429,8.57142857 L12.8571429,8.57142857 L12.8571429,8.57142857 Z M5.35714286,4.28571429 C5.35714286,4.87714286 4.87714286,5.35714286 4.28571429,5.35714286 L2.14285714,5.35714286 C1.55142857,5.35714286 1.07142857,4.87714286 1.07142857,4.28571429 L1.07142857,2.14285714 C1.07142857,1.55142857 1.55142857,1.07142857 2.14285714,1.07142857 L4.28571429,1.07142857 C4.87714286,1.07142857 5.35714286,1.55142857 5.35714286,2.14285714 L5.35714286,4.28571429 L5.35714286,4.28571429 L5.35714286,4.28571429 Z M4.28571429,0 L2.14285714,0 C0.959464286,0 0,0.959464286 0,2.14285714 L0,4.28571429 C0,5.46910714 0.959464286,6.42857143 2.14285714,6.42857143 L4.28571429,6.42857143 C5.46910714,6.42857143 6.42857143,5.46910714 6.42857143,4.28571429 L6.42857143,2.14285714 C6.42857143,0.959464286 5.46910714,0 4.28571429,0 L4.28571429,0 L4.28571429,0 Z M5.35714286,12.8571429 C5.35714286,13.4485714 4.87714286,13.9285714 4.28571429,13.9285714 L2.14285714,13.9285714 C1.55142857,13.9285714 1.07142857,13.4485714 1.07142857,12.8571429 L1.07142857,10.7142857 C1.07142857,10.1228571 1.55142857,9.64285714 2.14285714,9.64285714 L4.28571429,9.64285714 C4.87714286,9.64285714 5.35714286,10.1228571 5.35714286,10.7142857 L5.35714286,12.8571429 L5.35714286,12.8571429 L5.35714286,12.8571429 Z M4.28571429,8.57142857 L2.14285714,8.57142857 C0.959464286,8.57142857 0,9.53089286 0,10.7142857 L0,12.8571429 C0,14.0405357 0.959464286,15 2.14285714,15 L4.28571429,15 C5.46910714,15 6.42857143,14.0405357 6.42857143,12.8571429 L6.42857143,10.7142857 C6.42857143,9.53089286 5.46910714,8.57142857 4.28571429,8.57142857 L4.28571429,8.57142857 L4.28571429,8.57142857 Z" id="grid"></path>
                                    </g>
                                </g>
                            </g>
                        </g>
                    </g>
                </g>
            </g>
        </g>
    </g>
</svg>