<?xml version="1.0" encoding="iso-8859-1"?>
<!-- Generator: Adobe Illustrator 16.0.0, SVG Export Plug-In . SVG Version: 6.00 Build 0)  -->
<!DOCTYPE svg PUBLIC "-//W3C//DTD SVG 1.1//EN" "http://www.w3.org/Graphics/SVG/1.1/DTD/svg11.dtd">
<svg version="1.1" id="Capa_1" xmlns="http://www.w3.org/2000/svg" xmlns:xlink="http://www.w3.org/1999/xlink" x="0px" y="0px"
	 width="27.45px" height="27.45px" viewBox="0 0 27.45 27.45" style="enable-background:new 0 0 27.45 27.45;" xml:space="preserve"
	>
<g>
	<path d="M27.45,4.723c0-2.104-1.729-3.832-3.832-3.832h-7.147c-1.076,0-2.05,0.449-2.745,1.168
		c-0.695-0.719-1.668-1.168-2.745-1.168H3.833C1.729,0.891,0,2.619,0,4.723v6.258c0,1.077,0.449,2.051,1.168,2.744
		C0.449,14.418,0,15.392,0,16.469v6.258c0,2.104,1.729,3.832,3.833,3.832h7.148c1.076,0,2.049-0.449,2.744-1.168
		c0.693,0.719,1.667,1.168,2.744,1.168h7.148c2.104,0,3.832-1.729,3.832-3.832v-6.258c0-1.077-0.449-2.051-1.168-2.744
		c0.719-0.693,1.169-1.667,1.169-2.744V4.723z M12.693,23.209c-0.205,0.748-0.899,1.311-1.712,1.311H3.833
		c-0.975,0-1.795-0.818-1.795-1.793v-6.258c0-0.814,0.565-1.508,1.313-1.713c0.153,0.02,0.324,0.02,0.482,0.02h7.148
		c0.158,0,0.313,0,0.466-0.02c0.599,0.164,1.081,0.64,1.246,1.238c-0.019,0.152-0.019,0.313-0.019,0.475v6.258
		C12.674,22.886,12.674,23.056,12.693,23.209z M12.693,11.45c-0.165,0.599-0.641,1.08-1.24,1.244c-0.153-0.02-0.314-0.02-0.472-0.02
		H3.833c-0.158,0-0.329,0-0.482,0.02c-0.747-0.205-1.313-0.899-1.313-1.713V4.723c0-0.975,0.821-1.793,1.795-1.793h7.148
		c0.812,0,1.507,0.562,1.712,1.31c-0.019,0.154-0.019,0.324-0.019,0.483v6.258C12.674,11.14,12.674,11.296,12.693,11.45z
		 M25.413,22.727c0,0.975-0.822,1.793-1.795,1.793h-7.147c-0.812,0-1.509-0.562-1.714-1.311c0.021-0.153,0.021-0.323,0.021-0.482
		v-6.258c0-0.159,0-0.314-0.021-0.469c0.166-0.601,0.642-1.08,1.24-1.244c0.153,0.02,0.313,0.02,0.474,0.02h7.147
		c0.157,0,0.327,0,0.481-0.02c0.748,0.205,1.312,0.898,1.312,1.713L25.413,22.727L25.413,22.727z M25.413,10.981
		c0,0.814-0.565,1.508-1.313,1.713c-0.154-0.02-0.324-0.02-0.48-0.02h-7.148c-0.158,0-0.312,0-0.467,0.02
		c-0.6-0.164-1.08-0.64-1.246-1.238c0.02-0.154,0.02-0.315,0.02-0.475V4.723c0-0.159,0-0.329-0.02-0.483
		c0.205-0.747,0.9-1.31,1.713-1.31h7.148c0.975,0,1.795,0.818,1.795,1.793L25.413,10.981L25.413,10.981z"/>
</g>
<g>
</g>
<g>
</g>
<g>
</g>
<g>
</g>
<g>
</g>
<g>
</g>
<g>
</g>
<g>
</g>
<g>
</g>
<g>
</g>
<g>
</g>
<g>
</g>
<g>
</g>
<g>
</g>
<g>
</g>
</svg>
