<?xml version="1.0" encoding="UTF-8" standalone="no"?>
<svg width="50px" height="54px" viewBox="0 0 50 54" version="1.1" xmlns="http://www.w3.org/2000/svg" xmlns:xlink="http://www.w3.org/1999/xlink">
    <!-- Generator: Sketch 3.7 (28169) - http://www.bohemiancoding.com/sketch -->
    <title>Fill 1 + Fill 2 + Fill 3 Copy</title>
    <desc>Created with Sketch.</desc>
    <defs></defs>
    <g id="Page-1" stroke="none" stroke-width="1" fill="none" fill-rule="evenodd">
        <g id="Fill-1-+-Fill-2-+-Fill-3-Copy">
            <g id="Page-1">
                <g id="French_Rabbit_Logotype">
                    <g id="Fill-1-+-Fill-2-+-Fill-3">
                        <path d="M6.925,53.4915957 C6.925,53.4915957 0.970454545,53.3588936 0.160227273,47.3740851 C-0.649431818,41.3892766 1.78181818,35.0253191 6.57897727,25.0094681 C9.71477273,18.4611064 18.4119318,4.50268085 24.3176136,1.32242553 C26.1465909,0.337787234 28.8301136,-0.453829787 30.7545455,0.376851064 C30.7545455,0.376851064 27.6369318,2.95506383 21.0943182,11.3336809 C14.5517045,19.7122979 11.3136364,28.6630851 11.3136364,28.6630851 C11.3136364,28.6630851 20.1625,13.1650851 28.1375,6.55065957 C33.275,2.28982979 37.0306818,-0.0172340426 39.2795455,0.692234043 C47.0835227,3.15440426 33.0818182,21.3156383 29.6329545,24.3792766 C28.1465909,25.6994043 26.7289773,26.8345532 25.4227273,27.8019574 L14.5517045,35.1488298 C14.5517045,35.1488298 22.1244318,31.7060426 25.6022727,29.8102979 C26.2482955,29.4581489 26.8704545,29.1134681 27.4539773,28.7842979 C33.1414773,28.8158936 38.2096591,31.7227021 41.5176136,36.2500851 C42.6193182,38.0780426 42.9721591,40.0438723 43.4244318,42.1418298 C43.4244318,42.1418298 43.7011364,40.3965957 43.6181818,38.5008511 C46.8573864,38.6243617 49.4443182,41.1669574 49.4443182,44.2868936 C49.4443182,46.7749149 47.7994318,48.8958511 45.4903409,49.715617 C45.4329545,51.0018511 45.2647727,52.2559149 44.9971591,53.4663191 L13.1585227,53.4663191 L6.925,53.4915957" id="Fill-1" fill="#04AAFF"></path>
                        <path d="M10.6221591,42.263617 C12.0096591,42.263617 13.1340909,43.4004894 13.1340909,44.8033404 C13.1340909,46.205617 12.0096591,47.3424894 10.6221591,47.3424894 C9.23522727,47.3424894 8.11079545,46.205617 8.11079545,44.8033404 C8.11079545,43.4004894 9.23522727,42.263617 10.6221591,42.263617" id="Fill-2" fill="#000000"></path>
                        <path d="M9.95511364,42.8616383 C9.66647727,42.9139149 9.47443182,43.1936809 9.52613636,43.4849362 C9.57784091,43.776766 9.85397727,43.9709362 10.1426136,43.9186596 L10.2375,43.9065957 L10.3346591,43.9042979 C10.6431818,43.9042979 10.9215909,44.0289574 11.1210227,44.2311702 L11.4982955,43.8520213 L11.1204545,44.2328936 L11.1471591,44.2575957 C11.3329545,44.4580851 11.4471591,44.729234 11.4471591,45.0285319 C11.4471591,45.3261064 11.6857955,45.567383 11.9801136,45.567383 C12.275,45.567383 12.5136364,45.3261064 12.5136364,45.0285319 C12.5136364,44.4362553 12.2818182,43.8979787 11.9022727,43.5010213 L11.8761364,43.4717234 L11.875,43.4728723 L11.8732955,43.4711489 C11.4778409,43.0724681 10.9329545,42.8254468 10.3346591,42.8254468 C10.2880682,42.8254468 10.2244318,42.8294681 10.1460227,42.8363617 C10.0829545,42.8421064 10.01875,42.8507234 9.95511364,42.8616383" id="Fill-3" fill="#FFFFFF"></path>
                    </g>
                </g>
            </g>
        </g>
    </g>
</svg>