<?xml version="1.0" encoding="UTF-8" standalone="no"?>
<svg width="10px" height="9px" viewBox="0 0 10 9" version="1.1" xmlns="http://www.w3.org/2000/svg" xmlns:xlink="http://www.w3.org/1999/xlink">
    <!-- Generator: Sketch 3.7 (28169) - http://www.bohemiancoding.com/sketch -->
    <title>Shape</title>
    <desc>Created with Sketch.</desc>
    <defs></defs>
    <g id="Page-1" stroke="none" stroke-width="1" fill="none" fill-rule="evenodd">
        <g id="-proof-medical-podbor-copy-4" transform="translate(-466.000000, -577.000000)" fill="#5B6A85">
            <g id="Katalog" transform="translate(401.000000, 295.000000)">
                <g id="Filtr" transform="translate(20.000000, 25.000000)">
                    <g id="Proizv" transform="translate(0.000000, 162.000000)">
                        <g id="Название-+-Rectangle-90-Copy-+-Shape-Copy" transform="translate(40.000000, 89.000000)">
                            <g id="Rectangle-90-Copy-+-Shape">
                                <path d="M13.7560898,6.23896766 L8.97302709,13.5565768 L5.87436523,10.8790152 C5.74105536,10.7409827 5.54139841,10.6897442 5.35809358,10.7465228 C5.17478876,10.8033014 5.03905326,10.9584277 5.00710961,11.1476473 C4.97516596,11.336867 5.05245424,11.5279555 5.20696114,11.6417627 L8.75055906,14.7086434 C8.86203436,14.8029082 9.00864463,14.8447197 9.1530731,14.8234355 C9.29750157,14.8021513 9.42581777,14.7198244 9.50536131,14.5974094 L14.6141807,6.79513774 C14.722938,6.63570983 14.7320808,6.42845849 14.6377849,6.26007298 C14.543489,6.09168748 14.3620052,5.99118703 14.1692447,6.00060906 C14.0004955,6.00654498 13.8456968,6.09585194 13.7560898,6.23896766 Z" id="Shape"></path>
                            </g>
                        </g>
                    </g>
                </g>
            </g>
        </g>
    </g>
</svg>