<svg xmlns="http://www.w3.org/2000/svg" viewBox="0 0 317.452 317.452"><path d="M158.726 204.076c47.096 0 79.363-34.126 79.363-79.363v-45.35C238.089 34.126 205.822 0 158.726 0S79.363 34.126 79.363 79.363v45.35c0 45.237 32.267 79.363 79.363 79.363zM102.038 79.363c0-31.859 23.537-56.688 56.688-56.688s56.688 24.829 56.688 56.688v45.35c0 31.859-23.537 56.688-56.688 56.688s-56.688-24.829-56.688-56.688v-45.35zm137.207 90.565l-2.812-.93-1.383 2.517c-2.88 5.215-6.349 10.272-10.294 15.034l-3.243 3.9 4.989 1.361c36.643 10.09 65.962 66.96 67.481 103.036H23.446c1.519-36.099 27.505-92.945 64.148-103.036l4.989-1.361-3.22-3.9c-3.968-4.784-7.437-9.841-10.295-15.056l-1.406-2.517-2.789.952C28.979 185.143 0 248.361 0 294.845v22.607h317.452v-22.607c0-46.484-32.335-109.702-78.207-124.917z"></path></svg>